<mxfile host="app.diagrams.net" agent="Mozilla/5.0 (Windows NT 10.0; Win64; x64) AppleWebKit/537.36 (KHTML, like Gecko) Chrome/141.0.0.0 Safari/537.36 Edg/141.0.0.0" version="28.2.7">
  <diagram name="Page-1" id="dCFcM9UDtYnMXEt41zr1">
    <mxGraphModel dx="380" dy="252" grid="0" gridSize="10" guides="1" tooltips="1" connect="1" arrows="1" fold="1" page="0" pageScale="1" pageWidth="850" pageHeight="1100" math="0" shadow="0">
      <root>
        <mxCell id="0" />
        <mxCell id="1" parent="0" />
        <mxCell id="m0jxRpbqqGILVrSbafqr-1" value="User" style="shape=table;startSize=30;container=1;collapsible=1;childLayout=tableLayout;fixedRows=1;rowLines=0;fontStyle=1;align=center;resizeLast=1;html=1;" parent="1" vertex="1">
          <mxGeometry x="350" y="238" width="295" height="182" as="geometry" />
        </mxCell>
        <mxCell id="m0jxRpbqqGILVrSbafqr-2" value="" style="shape=tableRow;horizontal=0;startSize=0;swimlaneHead=0;swimlaneBody=0;fillColor=none;collapsible=0;dropTarget=0;points=[[0,0.5],[1,0.5]];portConstraint=eastwest;top=0;left=0;right=0;bottom=1;" parent="m0jxRpbqqGILVrSbafqr-1" vertex="1">
          <mxGeometry y="30" width="295" height="30" as="geometry" />
        </mxCell>
        <mxCell id="m0jxRpbqqGILVrSbafqr-3" value="PK" style="shape=partialRectangle;connectable=0;fillColor=none;top=0;left=0;bottom=0;right=0;fontStyle=1;overflow=hidden;whiteSpace=wrap;html=1;" parent="m0jxRpbqqGILVrSbafqr-2" vertex="1">
          <mxGeometry width="30" height="30" as="geometry">
            <mxRectangle width="30" height="30" as="alternateBounds" />
          </mxGeometry>
        </mxCell>
        <mxCell id="m0jxRpbqqGILVrSbafqr-4" value="userID Binary(16) NOT NULL&amp;nbsp;" style="shape=partialRectangle;connectable=0;fillColor=none;top=0;left=0;bottom=0;right=0;align=left;spacingLeft=6;fontStyle=5;overflow=hidden;whiteSpace=wrap;html=1;" parent="m0jxRpbqqGILVrSbafqr-2" vertex="1">
          <mxGeometry x="30" width="265" height="30" as="geometry">
            <mxRectangle width="265" height="30" as="alternateBounds" />
          </mxGeometry>
        </mxCell>
        <mxCell id="m0jxRpbqqGILVrSbafqr-5" value="" style="shape=tableRow;horizontal=0;startSize=0;swimlaneHead=0;swimlaneBody=0;fillColor=none;collapsible=0;dropTarget=0;points=[[0,0.5],[1,0.5]];portConstraint=eastwest;top=0;left=0;right=0;bottom=0;" parent="m0jxRpbqqGILVrSbafqr-1" vertex="1">
          <mxGeometry y="60" width="295" height="30" as="geometry" />
        </mxCell>
        <mxCell id="m0jxRpbqqGILVrSbafqr-6" value="" style="shape=partialRectangle;connectable=0;fillColor=none;top=0;left=0;bottom=0;right=0;editable=1;overflow=hidden;whiteSpace=wrap;html=1;" parent="m0jxRpbqqGILVrSbafqr-5" vertex="1">
          <mxGeometry width="30" height="30" as="geometry">
            <mxRectangle width="30" height="30" as="alternateBounds" />
          </mxGeometry>
        </mxCell>
        <mxCell id="m0jxRpbqqGILVrSbafqr-7" value="fullName &lt;b&gt;VARCHAR(255) NOT NULL&lt;/b&gt;" style="shape=partialRectangle;connectable=0;fillColor=none;top=0;left=0;bottom=0;right=0;align=left;spacingLeft=6;overflow=hidden;whiteSpace=wrap;html=1;" parent="m0jxRpbqqGILVrSbafqr-5" vertex="1">
          <mxGeometry x="30" width="265" height="30" as="geometry">
            <mxRectangle width="265" height="30" as="alternateBounds" />
          </mxGeometry>
        </mxCell>
        <mxCell id="m0jxRpbqqGILVrSbafqr-8" value="" style="shape=tableRow;horizontal=0;startSize=0;swimlaneHead=0;swimlaneBody=0;fillColor=none;collapsible=0;dropTarget=0;points=[[0,0.5],[1,0.5]];portConstraint=eastwest;top=0;left=0;right=0;bottom=0;" parent="m0jxRpbqqGILVrSbafqr-1" vertex="1">
          <mxGeometry y="90" width="295" height="30" as="geometry" />
        </mxCell>
        <mxCell id="m0jxRpbqqGILVrSbafqr-9" value="" style="shape=partialRectangle;connectable=0;fillColor=none;top=0;left=0;bottom=0;right=0;editable=1;overflow=hidden;whiteSpace=wrap;html=1;" parent="m0jxRpbqqGILVrSbafqr-8" vertex="1">
          <mxGeometry width="30" height="30" as="geometry">
            <mxRectangle width="30" height="30" as="alternateBounds" />
          </mxGeometry>
        </mxCell>
        <mxCell id="m0jxRpbqqGILVrSbafqr-10" value="email&lt;b&gt; VARCHAR(255) NOT NULL UNIQUE&lt;/b&gt;" style="shape=partialRectangle;connectable=0;fillColor=none;top=0;left=0;bottom=0;right=0;align=left;spacingLeft=6;overflow=hidden;whiteSpace=wrap;html=1;" parent="m0jxRpbqqGILVrSbafqr-8" vertex="1">
          <mxGeometry x="30" width="265" height="30" as="geometry">
            <mxRectangle width="265" height="30" as="alternateBounds" />
          </mxGeometry>
        </mxCell>
        <mxCell id="m0jxRpbqqGILVrSbafqr-18" value="" style="shape=tableRow;horizontal=0;startSize=0;swimlaneHead=0;swimlaneBody=0;fillColor=none;collapsible=0;dropTarget=0;points=[[0,0.5],[1,0.5]];portConstraint=eastwest;top=0;left=0;right=0;bottom=0;" parent="m0jxRpbqqGILVrSbafqr-1" vertex="1">
          <mxGeometry y="120" width="295" height="30" as="geometry" />
        </mxCell>
        <mxCell id="m0jxRpbqqGILVrSbafqr-19" value="" style="shape=partialRectangle;connectable=0;fillColor=none;top=0;left=0;bottom=0;right=0;editable=1;overflow=hidden;whiteSpace=wrap;html=1;" parent="m0jxRpbqqGILVrSbafqr-18" vertex="1">
          <mxGeometry width="30" height="30" as="geometry">
            <mxRectangle width="30" height="30" as="alternateBounds" />
          </mxGeometry>
        </mxCell>
        <mxCell id="m0jxRpbqqGILVrSbafqr-20" value="phoneNumber &lt;b&gt;VARCHAR(255) NULL&lt;/b&gt;" style="shape=partialRectangle;connectable=0;fillColor=none;top=0;left=0;bottom=0;right=0;align=left;spacingLeft=6;overflow=hidden;whiteSpace=wrap;html=1;" parent="m0jxRpbqqGILVrSbafqr-18" vertex="1">
          <mxGeometry x="30" width="265" height="30" as="geometry">
            <mxRectangle width="265" height="30" as="alternateBounds" />
          </mxGeometry>
        </mxCell>
        <mxCell id="m0jxRpbqqGILVrSbafqr-21" value="" style="shape=tableRow;horizontal=0;startSize=0;swimlaneHead=0;swimlaneBody=0;fillColor=none;collapsible=0;dropTarget=0;points=[[0,0.5],[1,0.5]];portConstraint=eastwest;top=0;left=0;right=0;bottom=0;" parent="m0jxRpbqqGILVrSbafqr-1" vertex="1">
          <mxGeometry y="150" width="295" height="30" as="geometry" />
        </mxCell>
        <mxCell id="m0jxRpbqqGILVrSbafqr-22" value="" style="shape=partialRectangle;connectable=0;fillColor=none;top=0;left=0;bottom=0;right=0;editable=1;overflow=hidden;whiteSpace=wrap;html=1;" parent="m0jxRpbqqGILVrSbafqr-21" vertex="1">
          <mxGeometry width="30" height="30" as="geometry">
            <mxRectangle width="30" height="30" as="alternateBounds" />
          </mxGeometry>
        </mxCell>
        <mxCell id="m0jxRpbqqGILVrSbafqr-23" value="address &lt;b&gt;TEXT NULL&lt;/b&gt;" style="shape=partialRectangle;connectable=0;fillColor=none;top=0;left=0;bottom=0;right=0;align=left;spacingLeft=6;overflow=hidden;whiteSpace=wrap;html=1;" parent="m0jxRpbqqGILVrSbafqr-21" vertex="1">
          <mxGeometry x="30" width="265" height="30" as="geometry">
            <mxRectangle width="265" height="30" as="alternateBounds" />
          </mxGeometry>
        </mxCell>
        <mxCell id="m0jxRpbqqGILVrSbafqr-27" value="Account" style="shape=table;startSize=30;container=1;collapsible=1;childLayout=tableLayout;fixedRows=1;rowLines=0;fontStyle=1;align=center;resizeLast=1;html=1;" parent="1" vertex="1">
          <mxGeometry x="718" y="238" width="481" height="213" as="geometry" />
        </mxCell>
        <mxCell id="m0jxRpbqqGILVrSbafqr-28" value="" style="shape=tableRow;horizontal=0;startSize=0;swimlaneHead=0;swimlaneBody=0;fillColor=none;collapsible=0;dropTarget=0;points=[[0,0.5],[1,0.5]];portConstraint=eastwest;top=0;left=0;right=0;bottom=1;" parent="m0jxRpbqqGILVrSbafqr-27" vertex="1">
          <mxGeometry y="30" width="481" height="30" as="geometry" />
        </mxCell>
        <mxCell id="m0jxRpbqqGILVrSbafqr-29" value="PK" style="shape=partialRectangle;connectable=0;fillColor=none;top=0;left=0;bottom=0;right=0;fontStyle=1;overflow=hidden;whiteSpace=wrap;html=1;" parent="m0jxRpbqqGILVrSbafqr-28" vertex="1">
          <mxGeometry width="30" height="30" as="geometry">
            <mxRectangle width="30" height="30" as="alternateBounds" />
          </mxGeometry>
        </mxCell>
        <mxCell id="m0jxRpbqqGILVrSbafqr-30" value="accountID Binary(16) NOT NULL" style="shape=partialRectangle;connectable=0;fillColor=none;top=0;left=0;bottom=0;right=0;align=left;spacingLeft=6;fontStyle=5;overflow=hidden;whiteSpace=wrap;html=1;" parent="m0jxRpbqqGILVrSbafqr-28" vertex="1">
          <mxGeometry x="30" width="451" height="30" as="geometry">
            <mxRectangle width="451" height="30" as="alternateBounds" />
          </mxGeometry>
        </mxCell>
        <mxCell id="m0jxRpbqqGILVrSbafqr-31" value="" style="shape=tableRow;horizontal=0;startSize=0;swimlaneHead=0;swimlaneBody=0;fillColor=none;collapsible=0;dropTarget=0;points=[[0,0.5],[1,0.5]];portConstraint=eastwest;top=0;left=0;right=0;bottom=0;" parent="m0jxRpbqqGILVrSbafqr-27" vertex="1">
          <mxGeometry y="60" width="481" height="30" as="geometry" />
        </mxCell>
        <mxCell id="m0jxRpbqqGILVrSbafqr-32" value="" style="shape=partialRectangle;connectable=0;fillColor=none;top=0;left=0;bottom=0;right=0;editable=1;overflow=hidden;whiteSpace=wrap;html=1;" parent="m0jxRpbqqGILVrSbafqr-31" vertex="1">
          <mxGeometry width="30" height="30" as="geometry">
            <mxRectangle width="30" height="30" as="alternateBounds" />
          </mxGeometry>
        </mxCell>
        <mxCell id="m0jxRpbqqGILVrSbafqr-33" value="userName &lt;b&gt;VARCHAR(255) NOT NULL UNIQUE&lt;/b&gt;" style="shape=partialRectangle;connectable=0;fillColor=none;top=0;left=0;bottom=0;right=0;align=left;spacingLeft=6;overflow=hidden;whiteSpace=wrap;html=1;" parent="m0jxRpbqqGILVrSbafqr-31" vertex="1">
          <mxGeometry x="30" width="451" height="30" as="geometry">
            <mxRectangle width="451" height="30" as="alternateBounds" />
          </mxGeometry>
        </mxCell>
        <mxCell id="m0jxRpbqqGILVrSbafqr-34" value="" style="shape=tableRow;horizontal=0;startSize=0;swimlaneHead=0;swimlaneBody=0;fillColor=none;collapsible=0;dropTarget=0;points=[[0,0.5],[1,0.5]];portConstraint=eastwest;top=0;left=0;right=0;bottom=0;" parent="m0jxRpbqqGILVrSbafqr-27" vertex="1">
          <mxGeometry y="90" width="481" height="30" as="geometry" />
        </mxCell>
        <mxCell id="m0jxRpbqqGILVrSbafqr-35" value="" style="shape=partialRectangle;connectable=0;fillColor=none;top=0;left=0;bottom=0;right=0;editable=1;overflow=hidden;whiteSpace=wrap;html=1;" parent="m0jxRpbqqGILVrSbafqr-34" vertex="1">
          <mxGeometry width="30" height="30" as="geometry">
            <mxRectangle width="30" height="30" as="alternateBounds" />
          </mxGeometry>
        </mxCell>
        <mxCell id="m0jxRpbqqGILVrSbafqr-36" value="passwordHash &lt;b&gt;VARCHAR(255) NOT NULL&lt;/b&gt;" style="shape=partialRectangle;connectable=0;fillColor=none;top=0;left=0;bottom=0;right=0;align=left;spacingLeft=6;overflow=hidden;whiteSpace=wrap;html=1;" parent="m0jxRpbqqGILVrSbafqr-34" vertex="1">
          <mxGeometry x="30" width="451" height="30" as="geometry">
            <mxRectangle width="451" height="30" as="alternateBounds" />
          </mxGeometry>
        </mxCell>
        <mxCell id="m0jxRpbqqGILVrSbafqr-37" value="" style="shape=tableRow;horizontal=0;startSize=0;swimlaneHead=0;swimlaneBody=0;fillColor=none;collapsible=0;dropTarget=0;points=[[0,0.5],[1,0.5]];portConstraint=eastwest;top=0;left=0;right=0;bottom=0;" parent="m0jxRpbqqGILVrSbafqr-27" vertex="1">
          <mxGeometry y="120" width="481" height="30" as="geometry" />
        </mxCell>
        <mxCell id="m0jxRpbqqGILVrSbafqr-38" value="" style="shape=partialRectangle;connectable=0;fillColor=none;top=0;left=0;bottom=0;right=0;editable=1;overflow=hidden;whiteSpace=wrap;html=1;" parent="m0jxRpbqqGILVrSbafqr-37" vertex="1">
          <mxGeometry width="30" height="30" as="geometry">
            <mxRectangle width="30" height="30" as="alternateBounds" />
          </mxGeometry>
        </mxCell>
        <mxCell id="m0jxRpbqqGILVrSbafqr-39" value="createdAt &lt;b&gt;DATETIME NOT NULL DEFAULT CURRENT_TIMESTAMP&lt;/b&gt;" style="shape=partialRectangle;connectable=0;fillColor=none;top=0;left=0;bottom=0;right=0;align=left;spacingLeft=6;overflow=hidden;whiteSpace=wrap;html=1;" parent="m0jxRpbqqGILVrSbafqr-37" vertex="1">
          <mxGeometry x="30" width="451" height="30" as="geometry">
            <mxRectangle width="451" height="30" as="alternateBounds" />
          </mxGeometry>
        </mxCell>
        <mxCell id="sr8bmoJyyuacvKMmJ3mU-14" value="" style="shape=tableRow;horizontal=0;startSize=0;swimlaneHead=0;swimlaneBody=0;fillColor=none;collapsible=0;dropTarget=0;points=[[0,0.5],[1,0.5]];portConstraint=eastwest;top=0;left=0;right=0;bottom=0;" parent="m0jxRpbqqGILVrSbafqr-27" vertex="1">
          <mxGeometry y="150" width="481" height="30" as="geometry" />
        </mxCell>
        <mxCell id="sr8bmoJyyuacvKMmJ3mU-15" value="" style="shape=partialRectangle;connectable=0;fillColor=none;top=0;left=0;bottom=0;right=0;editable=1;overflow=hidden;whiteSpace=wrap;html=1;" parent="sr8bmoJyyuacvKMmJ3mU-14" vertex="1">
          <mxGeometry width="30" height="30" as="geometry">
            <mxRectangle width="30" height="30" as="alternateBounds" />
          </mxGeometry>
        </mxCell>
        <mxCell id="sr8bmoJyyuacvKMmJ3mU-16" value="is_2fa_enabled &lt;b&gt;BOOLEAN NOT NULL DEFAULT FALSE&lt;/b&gt;" style="shape=partialRectangle;connectable=0;fillColor=none;top=0;left=0;bottom=0;right=0;align=left;spacingLeft=6;overflow=hidden;whiteSpace=wrap;html=1;" parent="sr8bmoJyyuacvKMmJ3mU-14" vertex="1">
          <mxGeometry x="30" width="451" height="30" as="geometry">
            <mxRectangle width="451" height="30" as="alternateBounds" />
          </mxGeometry>
        </mxCell>
        <mxCell id="sr8bmoJyyuacvKMmJ3mU-1059" value="" style="shape=tableRow;horizontal=0;startSize=0;swimlaneHead=0;swimlaneBody=0;fillColor=none;collapsible=0;dropTarget=0;points=[[0,0.5],[1,0.5]];portConstraint=eastwest;top=0;left=0;right=0;bottom=0;" parent="m0jxRpbqqGILVrSbafqr-27" vertex="1">
          <mxGeometry y="180" width="481" height="30" as="geometry" />
        </mxCell>
        <mxCell id="sr8bmoJyyuacvKMmJ3mU-1060" value="" style="shape=partialRectangle;connectable=0;fillColor=none;top=0;left=0;bottom=0;right=0;editable=1;overflow=hidden;whiteSpace=wrap;html=1;" parent="sr8bmoJyyuacvKMmJ3mU-1059" vertex="1">
          <mxGeometry width="30" height="30" as="geometry">
            <mxRectangle width="30" height="30" as="alternateBounds" />
          </mxGeometry>
        </mxCell>
        <mxCell id="sr8bmoJyyuacvKMmJ3mU-1061" value="twoFactorSecre&lt;span style=&quot;background-color: transparent; color: light-dark(rgb(0, 0, 0), rgb(255, 255, 255));&quot;&gt;t &lt;b&gt;TEXT NULL&lt;/b&gt;&lt;/span&gt;" style="shape=partialRectangle;connectable=0;fillColor=none;top=0;left=0;bottom=0;right=0;align=left;spacingLeft=6;overflow=hidden;whiteSpace=wrap;html=1;" parent="sr8bmoJyyuacvKMmJ3mU-1059" vertex="1">
          <mxGeometry x="30" width="451" height="30" as="geometry">
            <mxRectangle width="451" height="30" as="alternateBounds" />
          </mxGeometry>
        </mxCell>
        <mxCell id="sr8bmoJyyuacvKMmJ3mU-1062" value="OneTimePassword" style="shape=table;startSize=30;container=1;collapsible=1;childLayout=tableLayout;fixedRows=1;rowLines=0;fontStyle=1;align=center;resizeLast=1;html=1;" parent="1" vertex="1">
          <mxGeometry x="382" y="543" width="378" height="185" as="geometry" />
        </mxCell>
        <mxCell id="sr8bmoJyyuacvKMmJ3mU-1063" value="" style="shape=tableRow;horizontal=0;startSize=0;swimlaneHead=0;swimlaneBody=0;fillColor=none;collapsible=0;dropTarget=0;points=[[0,0.5],[1,0.5]];portConstraint=eastwest;top=0;left=0;right=0;bottom=1;" parent="sr8bmoJyyuacvKMmJ3mU-1062" vertex="1">
          <mxGeometry y="30" width="378" height="30" as="geometry" />
        </mxCell>
        <mxCell id="sr8bmoJyyuacvKMmJ3mU-1064" value="PK" style="shape=partialRectangle;connectable=0;fillColor=none;top=0;left=0;bottom=0;right=0;fontStyle=1;overflow=hidden;whiteSpace=wrap;html=1;" parent="sr8bmoJyyuacvKMmJ3mU-1063" vertex="1">
          <mxGeometry width="30" height="30" as="geometry">
            <mxRectangle width="30" height="30" as="alternateBounds" />
          </mxGeometry>
        </mxCell>
        <mxCell id="sr8bmoJyyuacvKMmJ3mU-1065" value="otpID BINARY916) NOT NULL" style="shape=partialRectangle;connectable=0;fillColor=none;top=0;left=0;bottom=0;right=0;align=left;spacingLeft=6;fontStyle=5;overflow=hidden;whiteSpace=wrap;html=1;" parent="sr8bmoJyyuacvKMmJ3mU-1063" vertex="1">
          <mxGeometry x="30" width="348" height="30" as="geometry">
            <mxRectangle width="348" height="30" as="alternateBounds" />
          </mxGeometry>
        </mxCell>
        <mxCell id="sr8bmoJyyuacvKMmJ3mU-1066" value="" style="shape=tableRow;horizontal=0;startSize=0;swimlaneHead=0;swimlaneBody=0;fillColor=none;collapsible=0;dropTarget=0;points=[[0,0.5],[1,0.5]];portConstraint=eastwest;top=0;left=0;right=0;bottom=0;" parent="sr8bmoJyyuacvKMmJ3mU-1062" vertex="1">
          <mxGeometry y="60" width="378" height="30" as="geometry" />
        </mxCell>
        <mxCell id="sr8bmoJyyuacvKMmJ3mU-1067" value="" style="shape=partialRectangle;connectable=0;fillColor=none;top=0;left=0;bottom=0;right=0;editable=1;overflow=hidden;whiteSpace=wrap;html=1;" parent="sr8bmoJyyuacvKMmJ3mU-1066" vertex="1">
          <mxGeometry width="30" height="30" as="geometry">
            <mxRectangle width="30" height="30" as="alternateBounds" />
          </mxGeometry>
        </mxCell>
        <mxCell id="sr8bmoJyyuacvKMmJ3mU-1068" value="accountID &lt;b&gt;BINARY(16) NOT NULL&amp;nbsp;&lt;/b&gt;" style="shape=partialRectangle;connectable=0;fillColor=none;top=0;left=0;bottom=0;right=0;align=left;spacingLeft=6;overflow=hidden;whiteSpace=wrap;html=1;" parent="sr8bmoJyyuacvKMmJ3mU-1066" vertex="1">
          <mxGeometry x="30" width="348" height="30" as="geometry">
            <mxRectangle width="348" height="30" as="alternateBounds" />
          </mxGeometry>
        </mxCell>
        <mxCell id="sr8bmoJyyuacvKMmJ3mU-1069" value="" style="shape=tableRow;horizontal=0;startSize=0;swimlaneHead=0;swimlaneBody=0;fillColor=none;collapsible=0;dropTarget=0;points=[[0,0.5],[1,0.5]];portConstraint=eastwest;top=0;left=0;right=0;bottom=0;" parent="sr8bmoJyyuacvKMmJ3mU-1062" vertex="1">
          <mxGeometry y="90" width="378" height="33" as="geometry" />
        </mxCell>
        <mxCell id="sr8bmoJyyuacvKMmJ3mU-1070" value="" style="shape=partialRectangle;connectable=0;fillColor=none;top=0;left=0;bottom=0;right=0;editable=1;overflow=hidden;whiteSpace=wrap;html=1;" parent="sr8bmoJyyuacvKMmJ3mU-1069" vertex="1">
          <mxGeometry width="30" height="33" as="geometry">
            <mxRectangle width="30" height="33" as="alternateBounds" />
          </mxGeometry>
        </mxCell>
        <mxCell id="sr8bmoJyyuacvKMmJ3mU-1071" value="tokenHash &lt;b&gt;VARCHAR(255) NOT NULL&lt;/b&gt;" style="shape=partialRectangle;connectable=0;fillColor=none;top=0;left=0;bottom=0;right=0;align=left;spacingLeft=6;overflow=hidden;whiteSpace=wrap;html=1;" parent="sr8bmoJyyuacvKMmJ3mU-1069" vertex="1">
          <mxGeometry x="30" width="348" height="33" as="geometry">
            <mxRectangle width="348" height="33" as="alternateBounds" />
          </mxGeometry>
        </mxCell>
        <mxCell id="sr8bmoJyyuacvKMmJ3mU-1072" value="" style="shape=tableRow;horizontal=0;startSize=0;swimlaneHead=0;swimlaneBody=0;fillColor=none;collapsible=0;dropTarget=0;points=[[0,0.5],[1,0.5]];portConstraint=eastwest;top=0;left=0;right=0;bottom=0;" parent="sr8bmoJyyuacvKMmJ3mU-1062" vertex="1">
          <mxGeometry y="123" width="378" height="30" as="geometry" />
        </mxCell>
        <mxCell id="sr8bmoJyyuacvKMmJ3mU-1073" value="" style="shape=partialRectangle;connectable=0;fillColor=none;top=0;left=0;bottom=0;right=0;editable=1;overflow=hidden;whiteSpace=wrap;html=1;" parent="sr8bmoJyyuacvKMmJ3mU-1072" vertex="1">
          <mxGeometry width="30" height="30" as="geometry">
            <mxRectangle width="30" height="30" as="alternateBounds" />
          </mxGeometry>
        </mxCell>
        <mxCell id="sr8bmoJyyuacvKMmJ3mU-1074" value="expiresAt &lt;b&gt;DATETIME NOT NULL&lt;/b&gt;" style="shape=partialRectangle;connectable=0;fillColor=none;top=0;left=0;bottom=0;right=0;align=left;spacingLeft=6;overflow=hidden;whiteSpace=wrap;html=1;" parent="sr8bmoJyyuacvKMmJ3mU-1072" vertex="1">
          <mxGeometry x="30" width="348" height="30" as="geometry">
            <mxRectangle width="348" height="30" as="alternateBounds" />
          </mxGeometry>
        </mxCell>
        <mxCell id="sr8bmoJyyuacvKMmJ3mU-1076" value="" style="shape=tableRow;horizontal=0;startSize=0;swimlaneHead=0;swimlaneBody=0;fillColor=none;collapsible=0;dropTarget=0;points=[[0,0.5],[1,0.5]];portConstraint=eastwest;top=0;left=0;right=0;bottom=0;" parent="sr8bmoJyyuacvKMmJ3mU-1062" vertex="1">
          <mxGeometry y="153" width="378" height="30" as="geometry" />
        </mxCell>
        <mxCell id="sr8bmoJyyuacvKMmJ3mU-1077" value="" style="shape=partialRectangle;connectable=0;fillColor=none;top=0;left=0;bottom=0;right=0;editable=1;overflow=hidden;whiteSpace=wrap;html=1;" parent="sr8bmoJyyuacvKMmJ3mU-1076" vertex="1">
          <mxGeometry width="30" height="30" as="geometry">
            <mxRectangle width="30" height="30" as="alternateBounds" />
          </mxGeometry>
        </mxCell>
        <mxCell id="sr8bmoJyyuacvKMmJ3mU-1078" value="expiresAt &lt;b&gt;DATETIME NOT NULL CURRNT_TIMESTAMP&lt;/b&gt;" style="shape=partialRectangle;connectable=0;fillColor=none;top=0;left=0;bottom=0;right=0;align=left;spacingLeft=6;overflow=hidden;whiteSpace=wrap;html=1;" parent="sr8bmoJyyuacvKMmJ3mU-1076" vertex="1">
          <mxGeometry x="30" width="348" height="30" as="geometry">
            <mxRectangle width="348" height="30" as="alternateBounds" />
          </mxGeometry>
        </mxCell>
        <mxCell id="sr8bmoJyyuacvKMmJ3mU-1079" value="Location" style="shape=table;startSize=30;container=1;collapsible=1;childLayout=tableLayout;fixedRows=1;rowLines=0;fontStyle=1;align=center;resizeLast=1;html=1;" parent="1" vertex="1">
          <mxGeometry x="886" y="546" width="283" height="181" as="geometry" />
        </mxCell>
        <mxCell id="sr8bmoJyyuacvKMmJ3mU-1080" value="" style="shape=tableRow;horizontal=0;startSize=0;swimlaneHead=0;swimlaneBody=0;fillColor=none;collapsible=0;dropTarget=0;points=[[0,0.5],[1,0.5]];portConstraint=eastwest;top=0;left=0;right=0;bottom=1;" parent="sr8bmoJyyuacvKMmJ3mU-1079" vertex="1">
          <mxGeometry y="30" width="283" height="30" as="geometry" />
        </mxCell>
        <mxCell id="sr8bmoJyyuacvKMmJ3mU-1081" value="PK" style="shape=partialRectangle;connectable=0;fillColor=none;top=0;left=0;bottom=0;right=0;fontStyle=1;overflow=hidden;whiteSpace=wrap;html=1;" parent="sr8bmoJyyuacvKMmJ3mU-1080" vertex="1">
          <mxGeometry width="30" height="30" as="geometry">
            <mxRectangle width="30" height="30" as="alternateBounds" />
          </mxGeometry>
        </mxCell>
        <mxCell id="sr8bmoJyyuacvKMmJ3mU-1082" value="locationID BINARY(16) NOT NULL" style="shape=partialRectangle;connectable=0;fillColor=none;top=0;left=0;bottom=0;right=0;align=left;spacingLeft=6;fontStyle=5;overflow=hidden;whiteSpace=wrap;html=1;" parent="sr8bmoJyyuacvKMmJ3mU-1080" vertex="1">
          <mxGeometry x="30" width="253" height="30" as="geometry">
            <mxRectangle width="253" height="30" as="alternateBounds" />
          </mxGeometry>
        </mxCell>
        <mxCell id="sr8bmoJyyuacvKMmJ3mU-1083" value="" style="shape=tableRow;horizontal=0;startSize=0;swimlaneHead=0;swimlaneBody=0;fillColor=none;collapsible=0;dropTarget=0;points=[[0,0.5],[1,0.5]];portConstraint=eastwest;top=0;left=0;right=0;bottom=0;" parent="sr8bmoJyyuacvKMmJ3mU-1079" vertex="1">
          <mxGeometry y="60" width="283" height="30" as="geometry" />
        </mxCell>
        <mxCell id="sr8bmoJyyuacvKMmJ3mU-1084" value="" style="shape=partialRectangle;connectable=0;fillColor=none;top=0;left=0;bottom=0;right=0;editable=1;overflow=hidden;whiteSpace=wrap;html=1;" parent="sr8bmoJyyuacvKMmJ3mU-1083" vertex="1">
          <mxGeometry width="30" height="30" as="geometry">
            <mxRectangle width="30" height="30" as="alternateBounds" />
          </mxGeometry>
        </mxCell>
        <mxCell id="sr8bmoJyyuacvKMmJ3mU-1085" value="name &lt;b&gt;VARCHAR(255) NOT NULL UNIQUE&lt;/b&gt;" style="shape=partialRectangle;connectable=0;fillColor=none;top=0;left=0;bottom=0;right=0;align=left;spacingLeft=6;overflow=hidden;whiteSpace=wrap;html=1;" parent="sr8bmoJyyuacvKMmJ3mU-1083" vertex="1">
          <mxGeometry x="30" width="253" height="30" as="geometry">
            <mxRectangle width="253" height="30" as="alternateBounds" />
          </mxGeometry>
        </mxCell>
        <mxCell id="sr8bmoJyyuacvKMmJ3mU-1086" value="" style="shape=tableRow;horizontal=0;startSize=0;swimlaneHead=0;swimlaneBody=0;fillColor=none;collapsible=0;dropTarget=0;points=[[0,0.5],[1,0.5]];portConstraint=eastwest;top=0;left=0;right=0;bottom=0;" parent="sr8bmoJyyuacvKMmJ3mU-1079" vertex="1">
          <mxGeometry y="90" width="283" height="30" as="geometry" />
        </mxCell>
        <mxCell id="sr8bmoJyyuacvKMmJ3mU-1087" value="" style="shape=partialRectangle;connectable=0;fillColor=none;top=0;left=0;bottom=0;right=0;editable=1;overflow=hidden;whiteSpace=wrap;html=1;" parent="sr8bmoJyyuacvKMmJ3mU-1086" vertex="1">
          <mxGeometry width="30" height="30" as="geometry">
            <mxRectangle width="30" height="30" as="alternateBounds" />
          </mxGeometry>
        </mxCell>
        <mxCell id="sr8bmoJyyuacvKMmJ3mU-1088" value="slug &lt;b&gt;VARCHAR(255) NOT NULL UNIQUE&lt;/b&gt;" style="shape=partialRectangle;connectable=0;fillColor=none;top=0;left=0;bottom=0;right=0;align=left;spacingLeft=6;overflow=hidden;whiteSpace=wrap;html=1;" parent="sr8bmoJyyuacvKMmJ3mU-1086" vertex="1">
          <mxGeometry x="30" width="253" height="30" as="geometry">
            <mxRectangle width="253" height="30" as="alternateBounds" />
          </mxGeometry>
        </mxCell>
        <mxCell id="sr8bmoJyyuacvKMmJ3mU-1089" value="" style="shape=tableRow;horizontal=0;startSize=0;swimlaneHead=0;swimlaneBody=0;fillColor=none;collapsible=0;dropTarget=0;points=[[0,0.5],[1,0.5]];portConstraint=eastwest;top=0;left=0;right=0;bottom=0;" parent="sr8bmoJyyuacvKMmJ3mU-1079" vertex="1">
          <mxGeometry y="120" width="283" height="30" as="geometry" />
        </mxCell>
        <mxCell id="sr8bmoJyyuacvKMmJ3mU-1090" value="" style="shape=partialRectangle;connectable=0;fillColor=none;top=0;left=0;bottom=0;right=0;editable=1;overflow=hidden;whiteSpace=wrap;html=1;" parent="sr8bmoJyyuacvKMmJ3mU-1089" vertex="1">
          <mxGeometry width="30" height="30" as="geometry">
            <mxRectangle width="30" height="30" as="alternateBounds" />
          </mxGeometry>
        </mxCell>
        <mxCell id="sr8bmoJyyuacvKMmJ3mU-1091" value="content &lt;b&gt;LONGTEXT NULL&lt;/b&gt;" style="shape=partialRectangle;connectable=0;fillColor=none;top=0;left=0;bottom=0;right=0;align=left;spacingLeft=6;overflow=hidden;whiteSpace=wrap;html=1;" parent="sr8bmoJyyuacvKMmJ3mU-1089" vertex="1">
          <mxGeometry x="30" width="253" height="30" as="geometry">
            <mxRectangle width="253" height="30" as="alternateBounds" />
          </mxGeometry>
        </mxCell>
        <mxCell id="sr8bmoJyyuacvKMmJ3mU-1092" value="" style="shape=tableRow;horizontal=0;startSize=0;swimlaneHead=0;swimlaneBody=0;fillColor=none;collapsible=0;dropTarget=0;points=[[0,0.5],[1,0.5]];portConstraint=eastwest;top=0;left=0;right=0;bottom=0;" parent="sr8bmoJyyuacvKMmJ3mU-1079" vertex="1">
          <mxGeometry y="150" width="283" height="30" as="geometry" />
        </mxCell>
        <mxCell id="sr8bmoJyyuacvKMmJ3mU-1093" value="" style="shape=partialRectangle;connectable=0;fillColor=none;top=0;left=0;bottom=0;right=0;editable=1;overflow=hidden;whiteSpace=wrap;html=1;" parent="sr8bmoJyyuacvKMmJ3mU-1092" vertex="1">
          <mxGeometry width="30" height="30" as="geometry">
            <mxRectangle width="30" height="30" as="alternateBounds" />
          </mxGeometry>
        </mxCell>
        <mxCell id="sr8bmoJyyuacvKMmJ3mU-1094" value="imageURL &lt;b&gt;VARCHAR(255) NULL&lt;/b&gt;" style="shape=partialRectangle;connectable=0;fillColor=none;top=0;left=0;bottom=0;right=0;align=left;spacingLeft=6;overflow=hidden;whiteSpace=wrap;html=1;" parent="sr8bmoJyyuacvKMmJ3mU-1092" vertex="1">
          <mxGeometry x="30" width="253" height="30" as="geometry">
            <mxRectangle width="253" height="30" as="alternateBounds" />
          </mxGeometry>
        </mxCell>
        <mxCell id="wUu1ckYVVT6AA69kC_yp-30" value="Tours" style="shape=table;startSize=30;container=1;collapsible=1;childLayout=tableLayout;fixedRows=1;rowLines=0;fontStyle=1;align=center;resizeLast=1;html=1;" parent="1" vertex="1">
          <mxGeometry x="239" y="835" width="344" height="356.3" as="geometry" />
        </mxCell>
        <mxCell id="wUu1ckYVVT6AA69kC_yp-31" value="" style="shape=tableRow;horizontal=0;startSize=0;swimlaneHead=0;swimlaneBody=0;fillColor=none;collapsible=0;dropTarget=0;points=[[0,0.5],[1,0.5]];portConstraint=eastwest;top=0;left=0;right=0;bottom=1;" parent="wUu1ckYVVT6AA69kC_yp-30" vertex="1">
          <mxGeometry y="30" width="344" height="30" as="geometry" />
        </mxCell>
        <mxCell id="wUu1ckYVVT6AA69kC_yp-32" value="PK" style="shape=partialRectangle;connectable=0;fillColor=none;top=0;left=0;bottom=0;right=0;fontStyle=1;overflow=hidden;whiteSpace=wrap;html=1;" parent="wUu1ckYVVT6AA69kC_yp-31" vertex="1">
          <mxGeometry width="30" height="30" as="geometry">
            <mxRectangle width="30" height="30" as="alternateBounds" />
          </mxGeometry>
        </mxCell>
        <mxCell id="wUu1ckYVVT6AA69kC_yp-33" value="TourID BINARY(16) NOT NULL" style="shape=partialRectangle;connectable=0;fillColor=none;top=0;left=0;bottom=0;right=0;align=left;spacingLeft=6;fontStyle=5;overflow=hidden;whiteSpace=wrap;html=1;" parent="wUu1ckYVVT6AA69kC_yp-31" vertex="1">
          <mxGeometry x="30" width="314" height="30" as="geometry">
            <mxRectangle width="314" height="30" as="alternateBounds" />
          </mxGeometry>
        </mxCell>
        <mxCell id="wUu1ckYVVT6AA69kC_yp-34" value="" style="shape=tableRow;horizontal=0;startSize=0;swimlaneHead=0;swimlaneBody=0;fillColor=none;collapsible=0;dropTarget=0;points=[[0,0.5],[1,0.5]];portConstraint=eastwest;top=0;left=0;right=0;bottom=0;" parent="wUu1ckYVVT6AA69kC_yp-30" vertex="1">
          <mxGeometry y="60" width="344" height="26" as="geometry" />
        </mxCell>
        <mxCell id="wUu1ckYVVT6AA69kC_yp-35" value="" style="shape=partialRectangle;connectable=0;fillColor=none;top=0;left=0;bottom=0;right=0;editable=1;overflow=hidden;whiteSpace=wrap;html=1;" parent="wUu1ckYVVT6AA69kC_yp-34" vertex="1">
          <mxGeometry width="30" height="26" as="geometry">
            <mxRectangle width="30" height="26" as="alternateBounds" />
          </mxGeometry>
        </mxCell>
        <mxCell id="wUu1ckYVVT6AA69kC_yp-36" value="locationID &lt;b&gt;BINARY(16) NOT NULL&lt;/b&gt;" style="shape=partialRectangle;connectable=0;fillColor=none;top=0;left=0;bottom=0;right=0;align=left;spacingLeft=6;overflow=hidden;whiteSpace=wrap;html=1;" parent="wUu1ckYVVT6AA69kC_yp-34" vertex="1">
          <mxGeometry x="30" width="314" height="26" as="geometry">
            <mxRectangle width="314" height="26" as="alternateBounds" />
          </mxGeometry>
        </mxCell>
        <mxCell id="wUu1ckYVVT6AA69kC_yp-37" value="" style="shape=tableRow;horizontal=0;startSize=0;swimlaneHead=0;swimlaneBody=0;fillColor=none;collapsible=0;dropTarget=0;points=[[0,0.5],[1,0.5]];portConstraint=eastwest;top=0;left=0;right=0;bottom=0;" parent="wUu1ckYVVT6AA69kC_yp-30" vertex="1">
          <mxGeometry y="86" width="344" height="30" as="geometry" />
        </mxCell>
        <mxCell id="wUu1ckYVVT6AA69kC_yp-38" value="" style="shape=partialRectangle;connectable=0;fillColor=none;top=0;left=0;bottom=0;right=0;editable=1;overflow=hidden;whiteSpace=wrap;html=1;" parent="wUu1ckYVVT6AA69kC_yp-37" vertex="1">
          <mxGeometry width="30" height="30" as="geometry">
            <mxRectangle width="30" height="30" as="alternateBounds" />
          </mxGeometry>
        </mxCell>
        <mxCell id="wUu1ckYVVT6AA69kC_yp-39" value="name &lt;b&gt;VARCHAR(255) NOT NULL&lt;/b&gt;&amp;nbsp;" style="shape=partialRectangle;connectable=0;fillColor=none;top=0;left=0;bottom=0;right=0;align=left;spacingLeft=6;overflow=hidden;whiteSpace=wrap;html=1;" parent="wUu1ckYVVT6AA69kC_yp-37" vertex="1">
          <mxGeometry x="30" width="314" height="30" as="geometry">
            <mxRectangle width="314" height="30" as="alternateBounds" />
          </mxGeometry>
        </mxCell>
        <mxCell id="wUu1ckYVVT6AA69kC_yp-40" value="" style="shape=tableRow;horizontal=0;startSize=0;swimlaneHead=0;swimlaneBody=0;fillColor=none;collapsible=0;dropTarget=0;points=[[0,0.5],[1,0.5]];portConstraint=eastwest;top=0;left=0;right=0;bottom=0;" parent="wUu1ckYVVT6AA69kC_yp-30" vertex="1">
          <mxGeometry y="116" width="344" height="30" as="geometry" />
        </mxCell>
        <mxCell id="wUu1ckYVVT6AA69kC_yp-41" value="" style="shape=partialRectangle;connectable=0;fillColor=none;top=0;left=0;bottom=0;right=0;editable=1;overflow=hidden;whiteSpace=wrap;html=1;" parent="wUu1ckYVVT6AA69kC_yp-40" vertex="1">
          <mxGeometry width="30" height="30" as="geometry">
            <mxRectangle width="30" height="30" as="alternateBounds" />
          </mxGeometry>
        </mxCell>
        <mxCell id="wUu1ckYVVT6AA69kC_yp-42" value="description &lt;b&gt;TEXT NULL&lt;/b&gt;" style="shape=partialRectangle;connectable=0;fillColor=none;top=0;left=0;bottom=0;right=0;align=left;spacingLeft=6;overflow=hidden;whiteSpace=wrap;html=1;" parent="wUu1ckYVVT6AA69kC_yp-40" vertex="1">
          <mxGeometry x="30" width="314" height="30" as="geometry">
            <mxRectangle width="314" height="30" as="alternateBounds" />
          </mxGeometry>
        </mxCell>
        <mxCell id="wUu1ckYVVT6AA69kC_yp-43" value="" style="shape=tableRow;horizontal=0;startSize=0;swimlaneHead=0;swimlaneBody=0;fillColor=none;collapsible=0;dropTarget=0;points=[[0,0.5],[1,0.5]];portConstraint=eastwest;top=0;left=0;right=0;bottom=0;" parent="wUu1ckYVVT6AA69kC_yp-30" vertex="1">
          <mxGeometry y="146" width="344" height="30" as="geometry" />
        </mxCell>
        <mxCell id="wUu1ckYVVT6AA69kC_yp-44" value="" style="shape=partialRectangle;connectable=0;fillColor=none;top=0;left=0;bottom=0;right=0;editable=1;overflow=hidden;whiteSpace=wrap;html=1;" parent="wUu1ckYVVT6AA69kC_yp-43" vertex="1">
          <mxGeometry width="30" height="30" as="geometry">
            <mxRectangle width="30" height="30" as="alternateBounds" />
          </mxGeometry>
        </mxCell>
        <mxCell id="wUu1ckYVVT6AA69kC_yp-45" value="itinerary &lt;b&gt;LONGTEXT NULL&lt;/b&gt;" style="shape=partialRectangle;connectable=0;fillColor=none;top=0;left=0;bottom=0;right=0;align=left;spacingLeft=6;overflow=hidden;whiteSpace=wrap;html=1;" parent="wUu1ckYVVT6AA69kC_yp-43" vertex="1">
          <mxGeometry x="30" width="314" height="30" as="geometry">
            <mxRectangle width="314" height="30" as="alternateBounds" />
          </mxGeometry>
        </mxCell>
        <mxCell id="wUu1ckYVVT6AA69kC_yp-81" value="" style="shape=tableRow;horizontal=0;startSize=0;swimlaneHead=0;swimlaneBody=0;fillColor=none;collapsible=0;dropTarget=0;points=[[0,0.5],[1,0.5]];portConstraint=eastwest;top=0;left=0;right=0;bottom=0;" parent="wUu1ckYVVT6AA69kC_yp-30" vertex="1">
          <mxGeometry y="176" width="344" height="30" as="geometry" />
        </mxCell>
        <mxCell id="wUu1ckYVVT6AA69kC_yp-82" value="" style="shape=partialRectangle;connectable=0;fillColor=none;top=0;left=0;bottom=0;right=0;editable=1;overflow=hidden;whiteSpace=wrap;html=1;" parent="wUu1ckYVVT6AA69kC_yp-81" vertex="1">
          <mxGeometry width="30" height="30" as="geometry">
            <mxRectangle width="30" height="30" as="alternateBounds" />
          </mxGeometry>
        </mxCell>
        <mxCell id="wUu1ckYVVT6AA69kC_yp-83" value="content &lt;b&gt;LONGTEXT NULL&lt;/b&gt;" style="shape=partialRectangle;connectable=0;fillColor=none;top=0;left=0;bottom=0;right=0;align=left;spacingLeft=6;overflow=hidden;whiteSpace=wrap;html=1;" parent="wUu1ckYVVT6AA69kC_yp-81" vertex="1">
          <mxGeometry x="30" width="314" height="30" as="geometry">
            <mxRectangle width="314" height="30" as="alternateBounds" />
          </mxGeometry>
        </mxCell>
        <mxCell id="wUu1ckYVVT6AA69kC_yp-84" value="" style="shape=tableRow;horizontal=0;startSize=0;swimlaneHead=0;swimlaneBody=0;fillColor=none;collapsible=0;dropTarget=0;points=[[0,0.5],[1,0.5]];portConstraint=eastwest;top=0;left=0;right=0;bottom=0;" parent="wUu1ckYVVT6AA69kC_yp-30" vertex="1">
          <mxGeometry y="206" width="344" height="30" as="geometry" />
        </mxCell>
        <mxCell id="wUu1ckYVVT6AA69kC_yp-85" value="" style="shape=partialRectangle;connectable=0;fillColor=none;top=0;left=0;bottom=0;right=0;editable=1;overflow=hidden;whiteSpace=wrap;html=1;" parent="wUu1ckYVVT6AA69kC_yp-84" vertex="1">
          <mxGeometry width="30" height="30" as="geometry">
            <mxRectangle width="30" height="30" as="alternateBounds" />
          </mxGeometry>
        </mxCell>
        <mxCell id="wUu1ckYVVT6AA69kC_yp-86" value="durationValue&amp;nbsp;&lt;b&gt;INT UNSIGNED NOT NULL&lt;/b&gt;" style="shape=partialRectangle;connectable=0;fillColor=none;top=0;left=0;bottom=0;right=0;align=left;spacingLeft=6;overflow=hidden;whiteSpace=wrap;html=1;" parent="wUu1ckYVVT6AA69kC_yp-84" vertex="1">
          <mxGeometry x="30" width="314" height="30" as="geometry">
            <mxRectangle width="314" height="30" as="alternateBounds" />
          </mxGeometry>
        </mxCell>
        <mxCell id="wUu1ckYVVT6AA69kC_yp-87" value="" style="shape=tableRow;horizontal=0;startSize=0;swimlaneHead=0;swimlaneBody=0;fillColor=none;collapsible=0;dropTarget=0;points=[[0,0.5],[1,0.5]];portConstraint=eastwest;top=0;left=0;right=0;bottom=0;" parent="wUu1ckYVVT6AA69kC_yp-30" vertex="1">
          <mxGeometry y="236" width="344" height="30" as="geometry" />
        </mxCell>
        <mxCell id="wUu1ckYVVT6AA69kC_yp-88" value="" style="shape=partialRectangle;connectable=0;fillColor=none;top=0;left=0;bottom=0;right=0;editable=1;overflow=hidden;whiteSpace=wrap;html=1;" parent="wUu1ckYVVT6AA69kC_yp-87" vertex="1">
          <mxGeometry width="30" height="30" as="geometry">
            <mxRectangle width="30" height="30" as="alternateBounds" />
          </mxGeometry>
        </mxCell>
        <mxCell id="wUu1ckYVVT6AA69kC_yp-89" value="price &lt;b&gt;DEMICAL(12,2) NOT NULL&lt;/b&gt;" style="shape=partialRectangle;connectable=0;fillColor=none;top=0;left=0;bottom=0;right=0;align=left;spacingLeft=6;overflow=hidden;whiteSpace=wrap;html=1;" parent="wUu1ckYVVT6AA69kC_yp-87" vertex="1">
          <mxGeometry x="30" width="314" height="30" as="geometry">
            <mxRectangle width="314" height="30" as="alternateBounds" />
          </mxGeometry>
        </mxCell>
        <mxCell id="wUu1ckYVVT6AA69kC_yp-90" value="" style="shape=tableRow;horizontal=0;startSize=0;swimlaneHead=0;swimlaneBody=0;fillColor=none;collapsible=0;dropTarget=0;points=[[0,0.5],[1,0.5]];portConstraint=eastwest;top=0;left=0;right=0;bottom=0;" parent="wUu1ckYVVT6AA69kC_yp-30" vertex="1">
          <mxGeometry y="266" width="344" height="30" as="geometry" />
        </mxCell>
        <mxCell id="wUu1ckYVVT6AA69kC_yp-91" value="" style="shape=partialRectangle;connectable=0;fillColor=none;top=0;left=0;bottom=0;right=0;editable=1;overflow=hidden;whiteSpace=wrap;html=1;" parent="wUu1ckYVVT6AA69kC_yp-90" vertex="1">
          <mxGeometry width="30" height="30" as="geometry">
            <mxRectangle width="30" height="30" as="alternateBounds" />
          </mxGeometry>
        </mxCell>
        <mxCell id="wUu1ckYVVT6AA69kC_yp-92" value="coverImageface&lt;b&gt;&amp;nbsp;VARCHAR(255)&lt;/b&gt;" style="shape=partialRectangle;connectable=0;fillColor=none;top=0;left=0;bottom=0;right=0;align=left;spacingLeft=6;overflow=hidden;whiteSpace=wrap;html=1;" parent="wUu1ckYVVT6AA69kC_yp-90" vertex="1">
          <mxGeometry x="30" width="314" height="30" as="geometry">
            <mxRectangle width="314" height="30" as="alternateBounds" />
          </mxGeometry>
        </mxCell>
        <mxCell id="bBnNVzQg2bSL60ogmq5s-31" value="" style="shape=tableRow;horizontal=0;startSize=0;swimlaneHead=0;swimlaneBody=0;fillColor=none;collapsible=0;dropTarget=0;points=[[0,0.5],[1,0.5]];portConstraint=eastwest;top=0;left=0;right=0;bottom=0;" vertex="1" parent="wUu1ckYVVT6AA69kC_yp-30">
          <mxGeometry y="296" width="344" height="30" as="geometry" />
        </mxCell>
        <mxCell id="bBnNVzQg2bSL60ogmq5s-32" value="" style="shape=partialRectangle;connectable=0;fillColor=none;top=0;left=0;bottom=0;right=0;editable=1;overflow=hidden;whiteSpace=wrap;html=1;" vertex="1" parent="bBnNVzQg2bSL60ogmq5s-31">
          <mxGeometry width="30" height="30" as="geometry">
            <mxRectangle width="30" height="30" as="alternateBounds" />
          </mxGeometry>
        </mxCell>
        <mxCell id="bBnNVzQg2bSL60ogmq5s-33" value="slug &lt;b&gt;VARCHAR(255) NOT NULL&lt;/b&gt;" style="shape=partialRectangle;connectable=0;fillColor=none;top=0;left=0;bottom=0;right=0;align=left;spacingLeft=6;overflow=hidden;whiteSpace=wrap;html=1;" vertex="1" parent="bBnNVzQg2bSL60ogmq5s-31">
          <mxGeometry x="30" width="314" height="30" as="geometry">
            <mxRectangle width="314" height="30" as="alternateBounds" />
          </mxGeometry>
        </mxCell>
        <mxCell id="bBnNVzQg2bSL60ogmq5s-34" value="" style="shape=tableRow;horizontal=0;startSize=0;swimlaneHead=0;swimlaneBody=0;fillColor=none;collapsible=0;dropTarget=0;points=[[0,0.5],[1,0.5]];portConstraint=eastwest;top=0;left=0;right=0;bottom=0;" vertex="1" parent="wUu1ckYVVT6AA69kC_yp-30">
          <mxGeometry y="326" width="344" height="30" as="geometry" />
        </mxCell>
        <mxCell id="bBnNVzQg2bSL60ogmq5s-35" value="" style="shape=partialRectangle;connectable=0;fillColor=none;top=0;left=0;bottom=0;right=0;editable=1;overflow=hidden;whiteSpace=wrap;html=1;" vertex="1" parent="bBnNVzQg2bSL60ogmq5s-34">
          <mxGeometry width="30" height="30" as="geometry">
            <mxRectangle width="30" height="30" as="alternateBounds" />
          </mxGeometry>
        </mxCell>
        <mxCell id="bBnNVzQg2bSL60ogmq5s-36" value="durationUnit &lt;b&gt;ENUM(&#39;Giờ&#39;,&#39;Ngày&#39;)&amp;nbsp; DEFAULT &#39;Ngày&#39;&lt;/b&gt;" style="shape=partialRectangle;connectable=0;fillColor=none;top=0;left=0;bottom=0;right=0;align=left;spacingLeft=6;overflow=hidden;whiteSpace=wrap;html=1;" vertex="1" parent="bBnNVzQg2bSL60ogmq5s-34">
          <mxGeometry x="30" width="314" height="30" as="geometry">
            <mxRectangle width="314" height="30" as="alternateBounds" />
          </mxGeometry>
        </mxCell>
        <mxCell id="wUu1ckYVVT6AA69kC_yp-5" value="Article" style="shape=table;startSize=30;container=1;collapsible=1;childLayout=tableLayout;fixedRows=1;rowLines=0;fontStyle=1;align=center;resizeLast=1;html=1;" parent="1" vertex="1">
          <mxGeometry x="665" y="809" width="290" height="300" as="geometry" />
        </mxCell>
        <mxCell id="wUu1ckYVVT6AA69kC_yp-6" value="" style="shape=tableRow;horizontal=0;startSize=0;swimlaneHead=0;swimlaneBody=0;fillColor=none;collapsible=0;dropTarget=0;points=[[0,0.5],[1,0.5]];portConstraint=eastwest;top=0;left=0;right=0;bottom=1;" parent="wUu1ckYVVT6AA69kC_yp-5" vertex="1">
          <mxGeometry y="30" width="290" height="30" as="geometry" />
        </mxCell>
        <mxCell id="wUu1ckYVVT6AA69kC_yp-7" value="PK" style="shape=partialRectangle;connectable=0;fillColor=none;top=0;left=0;bottom=0;right=0;fontStyle=1;overflow=hidden;whiteSpace=wrap;html=1;" parent="wUu1ckYVVT6AA69kC_yp-6" vertex="1">
          <mxGeometry width="30" height="30" as="geometry">
            <mxRectangle width="30" height="30" as="alternateBounds" />
          </mxGeometry>
        </mxCell>
        <mxCell id="wUu1ckYVVT6AA69kC_yp-8" value="articleID BINARY(16) NOT NULL&amp;nbsp;" style="shape=partialRectangle;connectable=0;fillColor=none;top=0;left=0;bottom=0;right=0;align=left;spacingLeft=6;fontStyle=5;overflow=hidden;whiteSpace=wrap;html=1;" parent="wUu1ckYVVT6AA69kC_yp-6" vertex="1">
          <mxGeometry x="30" width="260" height="30" as="geometry">
            <mxRectangle width="260" height="30" as="alternateBounds" />
          </mxGeometry>
        </mxCell>
        <mxCell id="wUu1ckYVVT6AA69kC_yp-9" value="" style="shape=tableRow;horizontal=0;startSize=0;swimlaneHead=0;swimlaneBody=0;fillColor=none;collapsible=0;dropTarget=0;points=[[0,0.5],[1,0.5]];portConstraint=eastwest;top=0;left=0;right=0;bottom=0;" parent="wUu1ckYVVT6AA69kC_yp-5" vertex="1">
          <mxGeometry y="60" width="290" height="30" as="geometry" />
        </mxCell>
        <mxCell id="wUu1ckYVVT6AA69kC_yp-10" value="" style="shape=partialRectangle;connectable=0;fillColor=none;top=0;left=0;bottom=0;right=0;editable=1;overflow=hidden;whiteSpace=wrap;html=1;" parent="wUu1ckYVVT6AA69kC_yp-9" vertex="1">
          <mxGeometry width="30" height="30" as="geometry">
            <mxRectangle width="30" height="30" as="alternateBounds" />
          </mxGeometry>
        </mxCell>
        <mxCell id="wUu1ckYVVT6AA69kC_yp-11" value="title &lt;b&gt;VARCHAR&lt;/b&gt;" style="shape=partialRectangle;connectable=0;fillColor=none;top=0;left=0;bottom=0;right=0;align=left;spacingLeft=6;overflow=hidden;whiteSpace=wrap;html=1;" parent="wUu1ckYVVT6AA69kC_yp-9" vertex="1">
          <mxGeometry x="30" width="260" height="30" as="geometry">
            <mxRectangle width="260" height="30" as="alternateBounds" />
          </mxGeometry>
        </mxCell>
        <mxCell id="wUu1ckYVVT6AA69kC_yp-12" value="" style="shape=tableRow;horizontal=0;startSize=0;swimlaneHead=0;swimlaneBody=0;fillColor=none;collapsible=0;dropTarget=0;points=[[0,0.5],[1,0.5]];portConstraint=eastwest;top=0;left=0;right=0;bottom=0;" parent="wUu1ckYVVT6AA69kC_yp-5" vertex="1">
          <mxGeometry y="90" width="290" height="30" as="geometry" />
        </mxCell>
        <mxCell id="wUu1ckYVVT6AA69kC_yp-13" value="" style="shape=partialRectangle;connectable=0;fillColor=none;top=0;left=0;bottom=0;right=0;editable=1;overflow=hidden;whiteSpace=wrap;html=1;" parent="wUu1ckYVVT6AA69kC_yp-12" vertex="1">
          <mxGeometry width="30" height="30" as="geometry">
            <mxRectangle width="30" height="30" as="alternateBounds" />
          </mxGeometry>
        </mxCell>
        <mxCell id="wUu1ckYVVT6AA69kC_yp-14" value="slug &lt;b&gt;VARCHAR&lt;/b&gt;" style="shape=partialRectangle;connectable=0;fillColor=none;top=0;left=0;bottom=0;right=0;align=left;spacingLeft=6;overflow=hidden;whiteSpace=wrap;html=1;" parent="wUu1ckYVVT6AA69kC_yp-12" vertex="1">
          <mxGeometry x="30" width="260" height="30" as="geometry">
            <mxRectangle width="260" height="30" as="alternateBounds" />
          </mxGeometry>
        </mxCell>
        <mxCell id="wUu1ckYVVT6AA69kC_yp-15" value="" style="shape=tableRow;horizontal=0;startSize=0;swimlaneHead=0;swimlaneBody=0;fillColor=none;collapsible=0;dropTarget=0;points=[[0,0.5],[1,0.5]];portConstraint=eastwest;top=0;left=0;right=0;bottom=0;" parent="wUu1ckYVVT6AA69kC_yp-5" vertex="1">
          <mxGeometry y="120" width="290" height="30" as="geometry" />
        </mxCell>
        <mxCell id="wUu1ckYVVT6AA69kC_yp-16" value="" style="shape=partialRectangle;connectable=0;fillColor=none;top=0;left=0;bottom=0;right=0;editable=1;overflow=hidden;whiteSpace=wrap;html=1;" parent="wUu1ckYVVT6AA69kC_yp-15" vertex="1">
          <mxGeometry width="30" height="30" as="geometry">
            <mxRectangle width="30" height="30" as="alternateBounds" />
          </mxGeometry>
        </mxCell>
        <mxCell id="wUu1ckYVVT6AA69kC_yp-17" value="excerpt&amp;nbsp;&lt;b&gt;TEXT&lt;/b&gt;&amp;nbsp;" style="shape=partialRectangle;connectable=0;fillColor=none;top=0;left=0;bottom=0;right=0;align=left;spacingLeft=6;overflow=hidden;whiteSpace=wrap;html=1;" parent="wUu1ckYVVT6AA69kC_yp-15" vertex="1">
          <mxGeometry x="30" width="260" height="30" as="geometry">
            <mxRectangle width="260" height="30" as="alternateBounds" />
          </mxGeometry>
        </mxCell>
        <mxCell id="wUu1ckYVVT6AA69kC_yp-18" value="" style="shape=tableRow;horizontal=0;startSize=0;swimlaneHead=0;swimlaneBody=0;fillColor=none;collapsible=0;dropTarget=0;points=[[0,0.5],[1,0.5]];portConstraint=eastwest;top=0;left=0;right=0;bottom=0;" parent="wUu1ckYVVT6AA69kC_yp-5" vertex="1">
          <mxGeometry y="150" width="290" height="30" as="geometry" />
        </mxCell>
        <mxCell id="wUu1ckYVVT6AA69kC_yp-19" value="" style="shape=partialRectangle;connectable=0;fillColor=none;top=0;left=0;bottom=0;right=0;editable=1;overflow=hidden;whiteSpace=wrap;html=1;" parent="wUu1ckYVVT6AA69kC_yp-18" vertex="1">
          <mxGeometry width="30" height="30" as="geometry">
            <mxRectangle width="30" height="30" as="alternateBounds" />
          </mxGeometry>
        </mxCell>
        <mxCell id="wUu1ckYVVT6AA69kC_yp-20" value="content &lt;b&gt;LONGTEXT&lt;/b&gt;" style="shape=partialRectangle;connectable=0;fillColor=none;top=0;left=0;bottom=0;right=0;align=left;spacingLeft=6;overflow=hidden;whiteSpace=wrap;html=1;" parent="wUu1ckYVVT6AA69kC_yp-18" vertex="1">
          <mxGeometry x="30" width="260" height="30" as="geometry">
            <mxRectangle width="260" height="30" as="alternateBounds" />
          </mxGeometry>
        </mxCell>
        <mxCell id="wUu1ckYVVT6AA69kC_yp-21" value="" style="shape=tableRow;horizontal=0;startSize=0;swimlaneHead=0;swimlaneBody=0;fillColor=none;collapsible=0;dropTarget=0;points=[[0,0.5],[1,0.5]];portConstraint=eastwest;top=0;left=0;right=0;bottom=0;" parent="wUu1ckYVVT6AA69kC_yp-5" vertex="1">
          <mxGeometry y="180" width="290" height="30" as="geometry" />
        </mxCell>
        <mxCell id="wUu1ckYVVT6AA69kC_yp-22" value="" style="shape=partialRectangle;connectable=0;fillColor=none;top=0;left=0;bottom=0;right=0;editable=1;overflow=hidden;whiteSpace=wrap;html=1;" parent="wUu1ckYVVT6AA69kC_yp-21" vertex="1">
          <mxGeometry width="30" height="30" as="geometry">
            <mxRectangle width="30" height="30" as="alternateBounds" />
          </mxGeometry>
        </mxCell>
        <mxCell id="wUu1ckYVVT6AA69kC_yp-23" value="coverImageUrl &lt;b&gt;VARCHAR&lt;/b&gt;" style="shape=partialRectangle;connectable=0;fillColor=none;top=0;left=0;bottom=0;right=0;align=left;spacingLeft=6;overflow=hidden;whiteSpace=wrap;html=1;" parent="wUu1ckYVVT6AA69kC_yp-21" vertex="1">
          <mxGeometry x="30" width="260" height="30" as="geometry">
            <mxRectangle width="260" height="30" as="alternateBounds" />
          </mxGeometry>
        </mxCell>
        <mxCell id="wUu1ckYVVT6AA69kC_yp-24" value="" style="shape=tableRow;horizontal=0;startSize=0;swimlaneHead=0;swimlaneBody=0;fillColor=none;collapsible=0;dropTarget=0;points=[[0,0.5],[1,0.5]];portConstraint=eastwest;top=0;left=0;right=0;bottom=0;" parent="wUu1ckYVVT6AA69kC_yp-5" vertex="1">
          <mxGeometry y="210" width="290" height="30" as="geometry" />
        </mxCell>
        <mxCell id="wUu1ckYVVT6AA69kC_yp-25" value="" style="shape=partialRectangle;connectable=0;fillColor=none;top=0;left=0;bottom=0;right=0;editable=1;overflow=hidden;whiteSpace=wrap;html=1;" parent="wUu1ckYVVT6AA69kC_yp-24" vertex="1">
          <mxGeometry width="30" height="30" as="geometry">
            <mxRectangle width="30" height="30" as="alternateBounds" />
          </mxGeometry>
        </mxCell>
        <mxCell id="wUu1ckYVVT6AA69kC_yp-26" value="categoryId &lt;b&gt;BINARY(16) NOT NULL&lt;/b&gt;" style="shape=partialRectangle;connectable=0;fillColor=none;top=0;left=0;bottom=0;right=0;align=left;spacingLeft=6;overflow=hidden;whiteSpace=wrap;html=1;" parent="wUu1ckYVVT6AA69kC_yp-24" vertex="1">
          <mxGeometry x="30" width="260" height="30" as="geometry">
            <mxRectangle width="260" height="30" as="alternateBounds" />
          </mxGeometry>
        </mxCell>
        <mxCell id="wUu1ckYVVT6AA69kC_yp-27" value="" style="shape=tableRow;horizontal=0;startSize=0;swimlaneHead=0;swimlaneBody=0;fillColor=none;collapsible=0;dropTarget=0;points=[[0,0.5],[1,0.5]];portConstraint=eastwest;top=0;left=0;right=0;bottom=0;" parent="wUu1ckYVVT6AA69kC_yp-5" vertex="1">
          <mxGeometry y="240" width="290" height="30" as="geometry" />
        </mxCell>
        <mxCell id="wUu1ckYVVT6AA69kC_yp-28" value="" style="shape=partialRectangle;connectable=0;fillColor=none;top=0;left=0;bottom=0;right=0;editable=1;overflow=hidden;whiteSpace=wrap;html=1;" parent="wUu1ckYVVT6AA69kC_yp-27" vertex="1">
          <mxGeometry width="30" height="30" as="geometry">
            <mxRectangle width="30" height="30" as="alternateBounds" />
          </mxGeometry>
        </mxCell>
        <mxCell id="wUu1ckYVVT6AA69kC_yp-29" value="createdAt &lt;b&gt;DATETIME&amp;nbsp;&lt;/b&gt;" style="shape=partialRectangle;connectable=0;fillColor=none;top=0;left=0;bottom=0;right=0;align=left;spacingLeft=6;overflow=hidden;whiteSpace=wrap;html=1;" parent="wUu1ckYVVT6AA69kC_yp-27" vertex="1">
          <mxGeometry x="30" width="260" height="30" as="geometry">
            <mxRectangle width="260" height="30" as="alternateBounds" />
          </mxGeometry>
        </mxCell>
        <mxCell id="bBnNVzQg2bSL60ogmq5s-37" value="" style="shape=tableRow;horizontal=0;startSize=0;swimlaneHead=0;swimlaneBody=0;fillColor=none;collapsible=0;dropTarget=0;points=[[0,0.5],[1,0.5]];portConstraint=eastwest;top=0;left=0;right=0;bottom=0;" vertex="1" parent="wUu1ckYVVT6AA69kC_yp-5">
          <mxGeometry y="270" width="290" height="30" as="geometry" />
        </mxCell>
        <mxCell id="bBnNVzQg2bSL60ogmq5s-38" value="" style="shape=partialRectangle;connectable=0;fillColor=none;top=0;left=0;bottom=0;right=0;editable=1;overflow=hidden;whiteSpace=wrap;html=1;" vertex="1" parent="bBnNVzQg2bSL60ogmq5s-37">
          <mxGeometry width="30" height="30" as="geometry">
            <mxRectangle width="30" height="30" as="alternateBounds" />
          </mxGeometry>
        </mxCell>
        <mxCell id="bBnNVzQg2bSL60ogmq5s-39" value="locationID &lt;b&gt;BINARY(16) NOT NULL&lt;/b&gt;" style="shape=partialRectangle;connectable=0;fillColor=none;top=0;left=0;bottom=0;right=0;align=left;spacingLeft=6;overflow=hidden;whiteSpace=wrap;html=1;" vertex="1" parent="bBnNVzQg2bSL60ogmq5s-37">
          <mxGeometry x="30" width="260" height="30" as="geometry">
            <mxRectangle width="260" height="30" as="alternateBounds" />
          </mxGeometry>
        </mxCell>
        <mxCell id="bBnNVzQg2bSL60ogmq5s-1" value="Tours_schedule" style="shape=table;startSize=30;container=1;collapsible=1;childLayout=tableLayout;fixedRows=1;rowLines=0;fontStyle=1;align=center;resizeLast=1;html=1;" vertex="1" parent="1">
          <mxGeometry x="1019" y="898" width="313" height="150" as="geometry" />
        </mxCell>
        <mxCell id="bBnNVzQg2bSL60ogmq5s-2" value="" style="shape=tableRow;horizontal=0;startSize=0;swimlaneHead=0;swimlaneBody=0;fillColor=none;collapsible=0;dropTarget=0;points=[[0,0.5],[1,0.5]];portConstraint=eastwest;top=0;left=0;right=0;bottom=1;" vertex="1" parent="bBnNVzQg2bSL60ogmq5s-1">
          <mxGeometry y="30" width="313" height="30" as="geometry" />
        </mxCell>
        <mxCell id="bBnNVzQg2bSL60ogmq5s-3" value="PK" style="shape=partialRectangle;connectable=0;fillColor=none;top=0;left=0;bottom=0;right=0;fontStyle=1;overflow=hidden;whiteSpace=wrap;html=1;" vertex="1" parent="bBnNVzQg2bSL60ogmq5s-2">
          <mxGeometry width="30" height="30" as="geometry">
            <mxRectangle width="30" height="30" as="alternateBounds" />
          </mxGeometry>
        </mxCell>
        <mxCell id="bBnNVzQg2bSL60ogmq5s-4" value="toursScheduleID BINARY(16) NOT NULL&amp;nbsp;" style="shape=partialRectangle;connectable=0;fillColor=none;top=0;left=0;bottom=0;right=0;align=left;spacingLeft=6;fontStyle=5;overflow=hidden;whiteSpace=wrap;html=1;" vertex="1" parent="bBnNVzQg2bSL60ogmq5s-2">
          <mxGeometry x="30" width="283" height="30" as="geometry">
            <mxRectangle width="283" height="30" as="alternateBounds" />
          </mxGeometry>
        </mxCell>
        <mxCell id="bBnNVzQg2bSL60ogmq5s-5" value="" style="shape=tableRow;horizontal=0;startSize=0;swimlaneHead=0;swimlaneBody=0;fillColor=none;collapsible=0;dropTarget=0;points=[[0,0.5],[1,0.5]];portConstraint=eastwest;top=0;left=0;right=0;bottom=0;" vertex="1" parent="bBnNVzQg2bSL60ogmq5s-1">
          <mxGeometry y="60" width="313" height="30" as="geometry" />
        </mxCell>
        <mxCell id="bBnNVzQg2bSL60ogmq5s-6" value="" style="shape=partialRectangle;connectable=0;fillColor=none;top=0;left=0;bottom=0;right=0;editable=1;overflow=hidden;whiteSpace=wrap;html=1;" vertex="1" parent="bBnNVzQg2bSL60ogmq5s-5">
          <mxGeometry width="30" height="30" as="geometry">
            <mxRectangle width="30" height="30" as="alternateBounds" />
          </mxGeometry>
        </mxCell>
        <mxCell id="bBnNVzQg2bSL60ogmq5s-7" value="tourID &lt;b&gt;BINARY916) NOT NULL&lt;/b&gt;" style="shape=partialRectangle;connectable=0;fillColor=none;top=0;left=0;bottom=0;right=0;align=left;spacingLeft=6;overflow=hidden;whiteSpace=wrap;html=1;" vertex="1" parent="bBnNVzQg2bSL60ogmq5s-5">
          <mxGeometry x="30" width="283" height="30" as="geometry">
            <mxRectangle width="283" height="30" as="alternateBounds" />
          </mxGeometry>
        </mxCell>
        <mxCell id="bBnNVzQg2bSL60ogmq5s-8" value="" style="shape=tableRow;horizontal=0;startSize=0;swimlaneHead=0;swimlaneBody=0;fillColor=none;collapsible=0;dropTarget=0;points=[[0,0.5],[1,0.5]];portConstraint=eastwest;top=0;left=0;right=0;bottom=0;" vertex="1" parent="bBnNVzQg2bSL60ogmq5s-1">
          <mxGeometry y="90" width="313" height="30" as="geometry" />
        </mxCell>
        <mxCell id="bBnNVzQg2bSL60ogmq5s-9" value="" style="shape=partialRectangle;connectable=0;fillColor=none;top=0;left=0;bottom=0;right=0;editable=1;overflow=hidden;whiteSpace=wrap;html=1;" vertex="1" parent="bBnNVzQg2bSL60ogmq5s-8">
          <mxGeometry width="30" height="30" as="geometry">
            <mxRectangle width="30" height="30" as="alternateBounds" />
          </mxGeometry>
        </mxCell>
        <mxCell id="bBnNVzQg2bSL60ogmq5s-10" value="startDate &lt;b&gt;DATE NOT NULL&lt;/b&gt;" style="shape=partialRectangle;connectable=0;fillColor=none;top=0;left=0;bottom=0;right=0;align=left;spacingLeft=6;overflow=hidden;whiteSpace=wrap;html=1;" vertex="1" parent="bBnNVzQg2bSL60ogmq5s-8">
          <mxGeometry x="30" width="283" height="30" as="geometry">
            <mxRectangle width="283" height="30" as="alternateBounds" />
          </mxGeometry>
        </mxCell>
        <mxCell id="bBnNVzQg2bSL60ogmq5s-11" value="" style="shape=tableRow;horizontal=0;startSize=0;swimlaneHead=0;swimlaneBody=0;fillColor=none;collapsible=0;dropTarget=0;points=[[0,0.5],[1,0.5]];portConstraint=eastwest;top=0;left=0;right=0;bottom=0;" vertex="1" parent="bBnNVzQg2bSL60ogmq5s-1">
          <mxGeometry y="120" width="313" height="30" as="geometry" />
        </mxCell>
        <mxCell id="bBnNVzQg2bSL60ogmq5s-12" value="" style="shape=partialRectangle;connectable=0;fillColor=none;top=0;left=0;bottom=0;right=0;editable=1;overflow=hidden;whiteSpace=wrap;html=1;" vertex="1" parent="bBnNVzQg2bSL60ogmq5s-11">
          <mxGeometry width="30" height="30" as="geometry">
            <mxRectangle width="30" height="30" as="alternateBounds" />
          </mxGeometry>
        </mxCell>
        <mxCell id="bBnNVzQg2bSL60ogmq5s-13" value="availableSlot &lt;b&gt;INT UNSIGNED NOT NULL&lt;/b&gt;" style="shape=partialRectangle;connectable=0;fillColor=none;top=0;left=0;bottom=0;right=0;align=left;spacingLeft=6;overflow=hidden;whiteSpace=wrap;html=1;" vertex="1" parent="bBnNVzQg2bSL60ogmq5s-11">
          <mxGeometry x="30" width="283" height="30" as="geometry">
            <mxRectangle width="283" height="30" as="alternateBounds" />
          </mxGeometry>
        </mxCell>
        <mxCell id="bBnNVzQg2bSL60ogmq5s-18" value="Tags" style="shape=table;startSize=30;container=1;collapsible=1;childLayout=tableLayout;fixedRows=1;rowLines=0;fontStyle=1;align=center;resizeLast=1;html=1;" vertex="1" parent="1">
          <mxGeometry x="703" y="1163" width="281" height="151.91670735677076" as="geometry" />
        </mxCell>
        <mxCell id="bBnNVzQg2bSL60ogmq5s-19" value="" style="shape=tableRow;horizontal=0;startSize=0;swimlaneHead=0;swimlaneBody=0;fillColor=none;collapsible=0;dropTarget=0;points=[[0,0.5],[1,0.5]];portConstraint=eastwest;top=0;left=0;right=0;bottom=1;" vertex="1" parent="bBnNVzQg2bSL60ogmq5s-18">
          <mxGeometry y="30" width="281" height="30" as="geometry" />
        </mxCell>
        <mxCell id="bBnNVzQg2bSL60ogmq5s-20" value="PK" style="shape=partialRectangle;connectable=0;fillColor=none;top=0;left=0;bottom=0;right=0;fontStyle=1;overflow=hidden;whiteSpace=wrap;html=1;" vertex="1" parent="bBnNVzQg2bSL60ogmq5s-19">
          <mxGeometry width="30" height="30" as="geometry">
            <mxRectangle width="30" height="30" as="alternateBounds" />
          </mxGeometry>
        </mxCell>
        <mxCell id="bBnNVzQg2bSL60ogmq5s-21" value="tagID BINARY(16) NOT NULL" style="shape=partialRectangle;connectable=0;fillColor=none;top=0;left=0;bottom=0;right=0;align=left;spacingLeft=6;fontStyle=5;overflow=hidden;whiteSpace=wrap;html=1;" vertex="1" parent="bBnNVzQg2bSL60ogmq5s-19">
          <mxGeometry x="30" width="251" height="30" as="geometry">
            <mxRectangle width="251" height="30" as="alternateBounds" />
          </mxGeometry>
        </mxCell>
        <mxCell id="bBnNVzQg2bSL60ogmq5s-22" value="" style="shape=tableRow;horizontal=0;startSize=0;swimlaneHead=0;swimlaneBody=0;fillColor=none;collapsible=0;dropTarget=0;points=[[0,0.5],[1,0.5]];portConstraint=eastwest;top=0;left=0;right=0;bottom=0;" vertex="1" parent="bBnNVzQg2bSL60ogmq5s-18">
          <mxGeometry y="60" width="281" height="29" as="geometry" />
        </mxCell>
        <mxCell id="bBnNVzQg2bSL60ogmq5s-23" value="" style="shape=partialRectangle;connectable=0;fillColor=none;top=0;left=0;bottom=0;right=0;editable=1;overflow=hidden;whiteSpace=wrap;html=1;" vertex="1" parent="bBnNVzQg2bSL60ogmq5s-22">
          <mxGeometry width="30" height="29" as="geometry">
            <mxRectangle width="30" height="29" as="alternateBounds" />
          </mxGeometry>
        </mxCell>
        <mxCell id="bBnNVzQg2bSL60ogmq5s-24" value="name &lt;b&gt;VARCHAR(255) NOT NULL UNIQUE&lt;/b&gt;" style="shape=partialRectangle;connectable=0;fillColor=none;top=0;left=0;bottom=0;right=0;align=left;spacingLeft=6;overflow=hidden;whiteSpace=wrap;html=1;" vertex="1" parent="bBnNVzQg2bSL60ogmq5s-22">
          <mxGeometry x="30" width="251" height="29" as="geometry">
            <mxRectangle width="251" height="29" as="alternateBounds" />
          </mxGeometry>
        </mxCell>
        <mxCell id="bBnNVzQg2bSL60ogmq5s-25" value="" style="shape=tableRow;horizontal=0;startSize=0;swimlaneHead=0;swimlaneBody=0;fillColor=none;collapsible=0;dropTarget=0;points=[[0,0.5],[1,0.5]];portConstraint=eastwest;top=0;left=0;right=0;bottom=0;" vertex="1" parent="bBnNVzQg2bSL60ogmq5s-18">
          <mxGeometry y="89" width="281" height="30" as="geometry" />
        </mxCell>
        <mxCell id="bBnNVzQg2bSL60ogmq5s-26" value="" style="shape=partialRectangle;connectable=0;fillColor=none;top=0;left=0;bottom=0;right=0;editable=1;overflow=hidden;whiteSpace=wrap;html=1;" vertex="1" parent="bBnNVzQg2bSL60ogmq5s-25">
          <mxGeometry width="30" height="30" as="geometry">
            <mxRectangle width="30" height="30" as="alternateBounds" />
          </mxGeometry>
        </mxCell>
        <mxCell id="bBnNVzQg2bSL60ogmq5s-27" value="slug &lt;b&gt;VARCHAR(255) NOT NULL UNIQUE&lt;/b&gt;" style="shape=partialRectangle;connectable=0;fillColor=none;top=0;left=0;bottom=0;right=0;align=left;spacingLeft=6;overflow=hidden;whiteSpace=wrap;html=1;" vertex="1" parent="bBnNVzQg2bSL60ogmq5s-25">
          <mxGeometry x="30" width="251" height="30" as="geometry">
            <mxRectangle width="251" height="30" as="alternateBounds" />
          </mxGeometry>
        </mxCell>
        <mxCell id="bBnNVzQg2bSL60ogmq5s-40" value="" style="shape=tableRow;horizontal=0;startSize=0;swimlaneHead=0;swimlaneBody=0;fillColor=none;collapsible=0;dropTarget=0;points=[[0,0.5],[1,0.5]];portConstraint=eastwest;top=0;left=0;right=0;bottom=0;" vertex="1" parent="bBnNVzQg2bSL60ogmq5s-18">
          <mxGeometry y="119" width="281" height="30" as="geometry" />
        </mxCell>
        <mxCell id="bBnNVzQg2bSL60ogmq5s-41" value="" style="shape=partialRectangle;connectable=0;fillColor=none;top=0;left=0;bottom=0;right=0;editable=1;overflow=hidden;whiteSpace=wrap;html=1;" vertex="1" parent="bBnNVzQg2bSL60ogmq5s-40">
          <mxGeometry width="30" height="30" as="geometry">
            <mxRectangle width="30" height="30" as="alternateBounds" />
          </mxGeometry>
        </mxCell>
        <mxCell id="bBnNVzQg2bSL60ogmq5s-42" value="iconClass &lt;b&gt;VARCHAR(255) NOT NULL&lt;/b&gt;" style="shape=partialRectangle;connectable=0;fillColor=none;top=0;left=0;bottom=0;right=0;align=left;spacingLeft=6;overflow=hidden;whiteSpace=wrap;html=1;" vertex="1" parent="bBnNVzQg2bSL60ogmq5s-40">
          <mxGeometry x="30" width="251" height="30" as="geometry">
            <mxRectangle width="251" height="30" as="alternateBounds" />
          </mxGeometry>
        </mxCell>
        <mxCell id="bBnNVzQg2bSL60ogmq5s-69" value="Category" style="shape=table;startSize=30;container=1;collapsible=1;childLayout=tableLayout;fixedRows=1;rowLines=0;fontStyle=1;align=center;resizeLast=1;html=1;" vertex="1" parent="1">
          <mxGeometry x="414.95" y="1305" width="230.05406065244927" height="150" as="geometry" />
        </mxCell>
        <mxCell id="bBnNVzQg2bSL60ogmq5s-70" value="" style="shape=tableRow;horizontal=0;startSize=0;swimlaneHead=0;swimlaneBody=0;fillColor=none;collapsible=0;dropTarget=0;points=[[0,0.5],[1,0.5]];portConstraint=eastwest;top=0;left=0;right=0;bottom=1;" vertex="1" parent="bBnNVzQg2bSL60ogmq5s-69">
          <mxGeometry y="30" width="230.05406065244927" height="30" as="geometry" />
        </mxCell>
        <mxCell id="bBnNVzQg2bSL60ogmq5s-71" value="PK" style="shape=partialRectangle;connectable=0;fillColor=none;top=0;left=0;bottom=0;right=0;fontStyle=1;overflow=hidden;whiteSpace=wrap;html=1;" vertex="1" parent="bBnNVzQg2bSL60ogmq5s-70">
          <mxGeometry width="30" height="30" as="geometry">
            <mxRectangle width="30" height="30" as="alternateBounds" />
          </mxGeometry>
        </mxCell>
        <mxCell id="bBnNVzQg2bSL60ogmq5s-72" value="ategoryID BINARY(16) NOT NULL" style="shape=partialRectangle;connectable=0;fillColor=none;top=0;left=0;bottom=0;right=0;align=left;spacingLeft=6;fontStyle=5;overflow=hidden;whiteSpace=wrap;html=1;" vertex="1" parent="bBnNVzQg2bSL60ogmq5s-70">
          <mxGeometry x="30" width="200.05406065244927" height="30" as="geometry">
            <mxRectangle width="200.05406065244927" height="30" as="alternateBounds" />
          </mxGeometry>
        </mxCell>
        <mxCell id="bBnNVzQg2bSL60ogmq5s-73" value="" style="shape=tableRow;horizontal=0;startSize=0;swimlaneHead=0;swimlaneBody=0;fillColor=none;collapsible=0;dropTarget=0;points=[[0,0.5],[1,0.5]];portConstraint=eastwest;top=0;left=0;right=0;bottom=0;" vertex="1" parent="bBnNVzQg2bSL60ogmq5s-69">
          <mxGeometry y="60" width="230.05406065244927" height="30" as="geometry" />
        </mxCell>
        <mxCell id="bBnNVzQg2bSL60ogmq5s-74" value="" style="shape=partialRectangle;connectable=0;fillColor=none;top=0;left=0;bottom=0;right=0;editable=1;overflow=hidden;whiteSpace=wrap;html=1;" vertex="1" parent="bBnNVzQg2bSL60ogmq5s-73">
          <mxGeometry width="30" height="30" as="geometry">
            <mxRectangle width="30" height="30" as="alternateBounds" />
          </mxGeometry>
        </mxCell>
        <mxCell id="bBnNVzQg2bSL60ogmq5s-75" value="name &lt;b&gt;VARCHAR(255) NOT NULL&lt;/b&gt;" style="shape=partialRectangle;connectable=0;fillColor=none;top=0;left=0;bottom=0;right=0;align=left;spacingLeft=6;overflow=hidden;whiteSpace=wrap;html=1;" vertex="1" parent="bBnNVzQg2bSL60ogmq5s-73">
          <mxGeometry x="30" width="200.05406065244927" height="30" as="geometry">
            <mxRectangle width="200.05406065244927" height="30" as="alternateBounds" />
          </mxGeometry>
        </mxCell>
        <mxCell id="bBnNVzQg2bSL60ogmq5s-76" value="" style="shape=tableRow;horizontal=0;startSize=0;swimlaneHead=0;swimlaneBody=0;fillColor=none;collapsible=0;dropTarget=0;points=[[0,0.5],[1,0.5]];portConstraint=eastwest;top=0;left=0;right=0;bottom=0;" vertex="1" parent="bBnNVzQg2bSL60ogmq5s-69">
          <mxGeometry y="90" width="230.05406065244927" height="30" as="geometry" />
        </mxCell>
        <mxCell id="bBnNVzQg2bSL60ogmq5s-77" value="" style="shape=partialRectangle;connectable=0;fillColor=none;top=0;left=0;bottom=0;right=0;editable=1;overflow=hidden;whiteSpace=wrap;html=1;" vertex="1" parent="bBnNVzQg2bSL60ogmq5s-76">
          <mxGeometry width="30" height="30" as="geometry">
            <mxRectangle width="30" height="30" as="alternateBounds" />
          </mxGeometry>
        </mxCell>
        <mxCell id="bBnNVzQg2bSL60ogmq5s-78" value="slug&lt;b&gt; VARCHAR(255) NOT NULL&lt;/b&gt;" style="shape=partialRectangle;connectable=0;fillColor=none;top=0;left=0;bottom=0;right=0;align=left;spacingLeft=6;overflow=hidden;whiteSpace=wrap;html=1;" vertex="1" parent="bBnNVzQg2bSL60ogmq5s-76">
          <mxGeometry x="30" width="200.05406065244927" height="30" as="geometry">
            <mxRectangle width="200.05406065244927" height="30" as="alternateBounds" />
          </mxGeometry>
        </mxCell>
        <mxCell id="bBnNVzQg2bSL60ogmq5s-79" value="" style="shape=tableRow;horizontal=0;startSize=0;swimlaneHead=0;swimlaneBody=0;fillColor=none;collapsible=0;dropTarget=0;points=[[0,0.5],[1,0.5]];portConstraint=eastwest;top=0;left=0;right=0;bottom=0;" vertex="1" parent="bBnNVzQg2bSL60ogmq5s-69">
          <mxGeometry y="120" width="230.05406065244927" height="30" as="geometry" />
        </mxCell>
        <mxCell id="bBnNVzQg2bSL60ogmq5s-80" value="" style="shape=partialRectangle;connectable=0;fillColor=none;top=0;left=0;bottom=0;right=0;editable=1;overflow=hidden;whiteSpace=wrap;html=1;" vertex="1" parent="bBnNVzQg2bSL60ogmq5s-79">
          <mxGeometry width="30" height="30" as="geometry">
            <mxRectangle width="30" height="30" as="alternateBounds" />
          </mxGeometry>
        </mxCell>
        <mxCell id="bBnNVzQg2bSL60ogmq5s-81" value="description &lt;b&gt;TEXT NULL&lt;/b&gt;" style="shape=partialRectangle;connectable=0;fillColor=none;top=0;left=0;bottom=0;right=0;align=left;spacingLeft=6;overflow=hidden;whiteSpace=wrap;html=1;" vertex="1" parent="bBnNVzQg2bSL60ogmq5s-79">
          <mxGeometry x="30" width="200.05406065244927" height="30" as="geometry">
            <mxRectangle width="200.05406065244927" height="30" as="alternateBounds" />
          </mxGeometry>
        </mxCell>
        <mxCell id="bBnNVzQg2bSL60ogmq5s-82" value="Location_gallery" style="shape=table;startSize=30;container=1;collapsible=1;childLayout=tableLayout;fixedRows=1;rowLines=0;fontStyle=1;align=center;resizeLast=1;html=1;" vertex="1" parent="1">
          <mxGeometry x="1091" y="1109" width="339.8334147135415" height="179" as="geometry" />
        </mxCell>
        <mxCell id="bBnNVzQg2bSL60ogmq5s-83" value="" style="shape=tableRow;horizontal=0;startSize=0;swimlaneHead=0;swimlaneBody=0;fillColor=none;collapsible=0;dropTarget=0;points=[[0,0.5],[1,0.5]];portConstraint=eastwest;top=0;left=0;right=0;bottom=1;" vertex="1" parent="bBnNVzQg2bSL60ogmq5s-82">
          <mxGeometry y="30" width="339.8334147135415" height="30" as="geometry" />
        </mxCell>
        <mxCell id="bBnNVzQg2bSL60ogmq5s-84" value="PK" style="shape=partialRectangle;connectable=0;fillColor=none;top=0;left=0;bottom=0;right=0;fontStyle=1;overflow=hidden;whiteSpace=wrap;html=1;" vertex="1" parent="bBnNVzQg2bSL60ogmq5s-83">
          <mxGeometry width="30" height="30" as="geometry">
            <mxRectangle width="30" height="30" as="alternateBounds" />
          </mxGeometry>
        </mxCell>
        <mxCell id="bBnNVzQg2bSL60ogmq5s-85" value="locationGalleryID BINARY(16) NOT NULL" style="shape=partialRectangle;connectable=0;fillColor=none;top=0;left=0;bottom=0;right=0;align=left;spacingLeft=6;fontStyle=5;overflow=hidden;whiteSpace=wrap;html=1;" vertex="1" parent="bBnNVzQg2bSL60ogmq5s-83">
          <mxGeometry x="30" width="309.8334147135415" height="30" as="geometry">
            <mxRectangle width="309.8334147135415" height="30" as="alternateBounds" />
          </mxGeometry>
        </mxCell>
        <mxCell id="bBnNVzQg2bSL60ogmq5s-86" value="" style="shape=tableRow;horizontal=0;startSize=0;swimlaneHead=0;swimlaneBody=0;fillColor=none;collapsible=0;dropTarget=0;points=[[0,0.5],[1,0.5]];portConstraint=eastwest;top=0;left=0;right=0;bottom=0;" vertex="1" parent="bBnNVzQg2bSL60ogmq5s-82">
          <mxGeometry y="60" width="339.8334147135415" height="30" as="geometry" />
        </mxCell>
        <mxCell id="bBnNVzQg2bSL60ogmq5s-87" value="" style="shape=partialRectangle;connectable=0;fillColor=none;top=0;left=0;bottom=0;right=0;editable=1;overflow=hidden;whiteSpace=wrap;html=1;" vertex="1" parent="bBnNVzQg2bSL60ogmq5s-86">
          <mxGeometry width="30" height="30" as="geometry">
            <mxRectangle width="30" height="30" as="alternateBounds" />
          </mxGeometry>
        </mxCell>
        <mxCell id="bBnNVzQg2bSL60ogmq5s-88" value="locationID &lt;b&gt;BINARY(16) NOT NULL&lt;/b&gt;&amp;nbsp;" style="shape=partialRectangle;connectable=0;fillColor=none;top=0;left=0;bottom=0;right=0;align=left;spacingLeft=6;overflow=hidden;whiteSpace=wrap;html=1;" vertex="1" parent="bBnNVzQg2bSL60ogmq5s-86">
          <mxGeometry x="30" width="309.8334147135415" height="30" as="geometry">
            <mxRectangle width="309.8334147135415" height="30" as="alternateBounds" />
          </mxGeometry>
        </mxCell>
        <mxCell id="bBnNVzQg2bSL60ogmq5s-89" value="" style="shape=tableRow;horizontal=0;startSize=0;swimlaneHead=0;swimlaneBody=0;fillColor=none;collapsible=0;dropTarget=0;points=[[0,0.5],[1,0.5]];portConstraint=eastwest;top=0;left=0;right=0;bottom=0;" vertex="1" parent="bBnNVzQg2bSL60ogmq5s-82">
          <mxGeometry y="90" width="339.8334147135415" height="27" as="geometry" />
        </mxCell>
        <mxCell id="bBnNVzQg2bSL60ogmq5s-90" value="" style="shape=partialRectangle;connectable=0;fillColor=none;top=0;left=0;bottom=0;right=0;editable=1;overflow=hidden;whiteSpace=wrap;html=1;" vertex="1" parent="bBnNVzQg2bSL60ogmq5s-89">
          <mxGeometry width="30" height="27" as="geometry">
            <mxRectangle width="30" height="27" as="alternateBounds" />
          </mxGeometry>
        </mxCell>
        <mxCell id="bBnNVzQg2bSL60ogmq5s-91" value="imageURL &lt;b&gt;VARCHAR(255) NOT NULL&lt;/b&gt;" style="shape=partialRectangle;connectable=0;fillColor=none;top=0;left=0;bottom=0;right=0;align=left;spacingLeft=6;overflow=hidden;whiteSpace=wrap;html=1;" vertex="1" parent="bBnNVzQg2bSL60ogmq5s-89">
          <mxGeometry x="30" width="309.8334147135415" height="27" as="geometry">
            <mxRectangle width="309.8334147135415" height="27" as="alternateBounds" />
          </mxGeometry>
        </mxCell>
        <mxCell id="bBnNVzQg2bSL60ogmq5s-92" value="" style="shape=tableRow;horizontal=0;startSize=0;swimlaneHead=0;swimlaneBody=0;fillColor=none;collapsible=0;dropTarget=0;points=[[0,0.5],[1,0.5]];portConstraint=eastwest;top=0;left=0;right=0;bottom=0;" vertex="1" parent="bBnNVzQg2bSL60ogmq5s-82">
          <mxGeometry y="117" width="339.8334147135415" height="31" as="geometry" />
        </mxCell>
        <mxCell id="bBnNVzQg2bSL60ogmq5s-93" value="" style="shape=partialRectangle;connectable=0;fillColor=none;top=0;left=0;bottom=0;right=0;editable=1;overflow=hidden;whiteSpace=wrap;html=1;" vertex="1" parent="bBnNVzQg2bSL60ogmq5s-92">
          <mxGeometry width="30" height="31" as="geometry">
            <mxRectangle width="30" height="31" as="alternateBounds" />
          </mxGeometry>
        </mxCell>
        <mxCell id="bBnNVzQg2bSL60ogmq5s-94" value="caption &lt;b&gt;VARCHAR(255) NOT NULL&lt;/b&gt;" style="shape=partialRectangle;connectable=0;fillColor=none;top=0;left=0;bottom=0;right=0;align=left;spacingLeft=6;overflow=hidden;whiteSpace=wrap;html=1;" vertex="1" parent="bBnNVzQg2bSL60ogmq5s-92">
          <mxGeometry x="30" width="309.8334147135415" height="31" as="geometry">
            <mxRectangle width="309.8334147135415" height="31" as="alternateBounds" />
          </mxGeometry>
        </mxCell>
        <mxCell id="bBnNVzQg2bSL60ogmq5s-96" value="" style="shape=tableRow;horizontal=0;startSize=0;swimlaneHead=0;swimlaneBody=0;fillColor=none;collapsible=0;dropTarget=0;points=[[0,0.5],[1,0.5]];portConstraint=eastwest;top=0;left=0;right=0;bottom=0;" vertex="1" parent="bBnNVzQg2bSL60ogmq5s-82">
          <mxGeometry y="148" width="339.8334147135415" height="31" as="geometry" />
        </mxCell>
        <mxCell id="bBnNVzQg2bSL60ogmq5s-97" value="" style="shape=partialRectangle;connectable=0;fillColor=none;top=0;left=0;bottom=0;right=0;editable=1;overflow=hidden;whiteSpace=wrap;html=1;" vertex="1" parent="bBnNVzQg2bSL60ogmq5s-96">
          <mxGeometry width="30" height="31" as="geometry">
            <mxRectangle width="30" height="31" as="alternateBounds" />
          </mxGeometry>
        </mxCell>
        <mxCell id="bBnNVzQg2bSL60ogmq5s-98" value="displayOrder &lt;b&gt;INT UNSIGNED NOT NULL DEFAULT 0&lt;/b&gt;" style="shape=partialRectangle;connectable=0;fillColor=none;top=0;left=0;bottom=0;right=0;align=left;spacingLeft=6;overflow=hidden;whiteSpace=wrap;html=1;" vertex="1" parent="bBnNVzQg2bSL60ogmq5s-96">
          <mxGeometry x="30" width="309.8334147135415" height="31" as="geometry">
            <mxRectangle width="309.8334147135415" height="31" as="alternateBounds" />
          </mxGeometry>
        </mxCell>
        <mxCell id="bBnNVzQg2bSL60ogmq5s-99" value="tour_tag" style="shape=table;startSize=30;container=1;collapsible=1;childLayout=tableLayout;fixedRows=1;rowLines=0;fontStyle=1;align=center;resizeLast=1;html=1;whiteSpace=wrap;" vertex="1" parent="1">
          <mxGeometry x="930" y="1487" width="258" height="91" as="geometry" />
        </mxCell>
        <mxCell id="bBnNVzQg2bSL60ogmq5s-100" value="" style="shape=tableRow;horizontal=0;startSize=0;swimlaneHead=0;swimlaneBody=0;fillColor=none;collapsible=0;dropTarget=0;points=[[0,0.5],[1,0.5]];portConstraint=eastwest;top=0;left=0;right=0;bottom=0;html=1;" vertex="1" parent="bBnNVzQg2bSL60ogmq5s-99">
          <mxGeometry y="30" width="258" height="30" as="geometry" />
        </mxCell>
        <mxCell id="bBnNVzQg2bSL60ogmq5s-101" value="PK,FK1" style="shape=partialRectangle;connectable=0;fillColor=none;top=0;left=0;bottom=0;right=0;fontStyle=1;overflow=hidden;html=1;whiteSpace=wrap;" vertex="1" parent="bBnNVzQg2bSL60ogmq5s-100">
          <mxGeometry width="60" height="30" as="geometry">
            <mxRectangle width="60" height="30" as="alternateBounds" />
          </mxGeometry>
        </mxCell>
        <mxCell id="bBnNVzQg2bSL60ogmq5s-102" value="TourID BINARY(16) NOT NULL" style="shape=partialRectangle;connectable=0;fillColor=none;top=0;left=0;bottom=0;right=0;align=left;spacingLeft=6;fontStyle=5;overflow=hidden;html=1;whiteSpace=wrap;" vertex="1" parent="bBnNVzQg2bSL60ogmq5s-100">
          <mxGeometry x="60" width="198" height="30" as="geometry">
            <mxRectangle width="198" height="30" as="alternateBounds" />
          </mxGeometry>
        </mxCell>
        <mxCell id="bBnNVzQg2bSL60ogmq5s-103" value="" style="shape=tableRow;horizontal=0;startSize=0;swimlaneHead=0;swimlaneBody=0;fillColor=none;collapsible=0;dropTarget=0;points=[[0,0.5],[1,0.5]];portConstraint=eastwest;top=0;left=0;right=0;bottom=1;html=1;" vertex="1" parent="bBnNVzQg2bSL60ogmq5s-99">
          <mxGeometry y="60" width="258" height="30" as="geometry" />
        </mxCell>
        <mxCell id="bBnNVzQg2bSL60ogmq5s-104" value="PK,FK2" style="shape=partialRectangle;connectable=0;fillColor=none;top=0;left=0;bottom=0;right=0;fontStyle=1;overflow=hidden;html=1;whiteSpace=wrap;" vertex="1" parent="bBnNVzQg2bSL60ogmq5s-103">
          <mxGeometry width="60" height="30" as="geometry">
            <mxRectangle width="60" height="30" as="alternateBounds" />
          </mxGeometry>
        </mxCell>
        <mxCell id="bBnNVzQg2bSL60ogmq5s-105" value="tagID BINARY(16) NOT NULL" style="shape=partialRectangle;connectable=0;fillColor=none;top=0;left=0;bottom=0;right=0;align=left;spacingLeft=6;fontStyle=5;overflow=hidden;html=1;whiteSpace=wrap;" vertex="1" parent="bBnNVzQg2bSL60ogmq5s-103">
          <mxGeometry x="60" width="198" height="30" as="geometry">
            <mxRectangle width="198" height="30" as="alternateBounds" />
          </mxGeometry>
        </mxCell>
        <mxCell id="bBnNVzQg2bSL60ogmq5s-112" value="Tour_hightlight" style="shape=table;startSize=30;container=1;collapsible=1;childLayout=tableLayout;fixedRows=1;rowLines=0;fontStyle=1;align=center;resizeLast=1;html=1;" vertex="1" parent="1">
          <mxGeometry x="1434" y="659" width="284.2115149864785" height="150" as="geometry" />
        </mxCell>
        <mxCell id="bBnNVzQg2bSL60ogmq5s-113" value="" style="shape=tableRow;horizontal=0;startSize=0;swimlaneHead=0;swimlaneBody=0;fillColor=none;collapsible=0;dropTarget=0;points=[[0,0.5],[1,0.5]];portConstraint=eastwest;top=0;left=0;right=0;bottom=1;" vertex="1" parent="bBnNVzQg2bSL60ogmq5s-112">
          <mxGeometry y="30" width="284.2115149864785" height="30" as="geometry" />
        </mxCell>
        <mxCell id="bBnNVzQg2bSL60ogmq5s-114" value="PK" style="shape=partialRectangle;connectable=0;fillColor=none;top=0;left=0;bottom=0;right=0;fontStyle=1;overflow=hidden;whiteSpace=wrap;html=1;" vertex="1" parent="bBnNVzQg2bSL60ogmq5s-113">
          <mxGeometry width="30" height="30" as="geometry">
            <mxRectangle width="30" height="30" as="alternateBounds" />
          </mxGeometry>
        </mxCell>
        <mxCell id="bBnNVzQg2bSL60ogmq5s-115" value="tourHighlightID BINARY(16) NOT NULL" style="shape=partialRectangle;connectable=0;fillColor=none;top=0;left=0;bottom=0;right=0;align=left;spacingLeft=6;fontStyle=5;overflow=hidden;whiteSpace=wrap;html=1;" vertex="1" parent="bBnNVzQg2bSL60ogmq5s-113">
          <mxGeometry x="30" width="254.2115149864785" height="30" as="geometry">
            <mxRectangle width="254.2115149864785" height="30" as="alternateBounds" />
          </mxGeometry>
        </mxCell>
        <mxCell id="bBnNVzQg2bSL60ogmq5s-116" value="" style="shape=tableRow;horizontal=0;startSize=0;swimlaneHead=0;swimlaneBody=0;fillColor=none;collapsible=0;dropTarget=0;points=[[0,0.5],[1,0.5]];portConstraint=eastwest;top=0;left=0;right=0;bottom=0;" vertex="1" parent="bBnNVzQg2bSL60ogmq5s-112">
          <mxGeometry y="60" width="284.2115149864785" height="30" as="geometry" />
        </mxCell>
        <mxCell id="bBnNVzQg2bSL60ogmq5s-117" value="" style="shape=partialRectangle;connectable=0;fillColor=none;top=0;left=0;bottom=0;right=0;editable=1;overflow=hidden;whiteSpace=wrap;html=1;" vertex="1" parent="bBnNVzQg2bSL60ogmq5s-116">
          <mxGeometry width="30" height="30" as="geometry">
            <mxRectangle width="30" height="30" as="alternateBounds" />
          </mxGeometry>
        </mxCell>
        <mxCell id="bBnNVzQg2bSL60ogmq5s-118" value="tourID &lt;b&gt;BINARY(16) NOT NULL&lt;/b&gt;" style="shape=partialRectangle;connectable=0;fillColor=none;top=0;left=0;bottom=0;right=0;align=left;spacingLeft=6;overflow=hidden;whiteSpace=wrap;html=1;" vertex="1" parent="bBnNVzQg2bSL60ogmq5s-116">
          <mxGeometry x="30" width="254.2115149864785" height="30" as="geometry">
            <mxRectangle width="254.2115149864785" height="30" as="alternateBounds" />
          </mxGeometry>
        </mxCell>
        <mxCell id="bBnNVzQg2bSL60ogmq5s-119" value="" style="shape=tableRow;horizontal=0;startSize=0;swimlaneHead=0;swimlaneBody=0;fillColor=none;collapsible=0;dropTarget=0;points=[[0,0.5],[1,0.5]];portConstraint=eastwest;top=0;left=0;right=0;bottom=0;" vertex="1" parent="bBnNVzQg2bSL60ogmq5s-112">
          <mxGeometry y="90" width="284.2115149864785" height="30" as="geometry" />
        </mxCell>
        <mxCell id="bBnNVzQg2bSL60ogmq5s-120" value="" style="shape=partialRectangle;connectable=0;fillColor=none;top=0;left=0;bottom=0;right=0;editable=1;overflow=hidden;whiteSpace=wrap;html=1;" vertex="1" parent="bBnNVzQg2bSL60ogmq5s-119">
          <mxGeometry width="30" height="30" as="geometry">
            <mxRectangle width="30" height="30" as="alternateBounds" />
          </mxGeometry>
        </mxCell>
        <mxCell id="bBnNVzQg2bSL60ogmq5s-121" value="title &lt;b&gt;VARCHAR(255) NOT NULL&lt;/b&gt;" style="shape=partialRectangle;connectable=0;fillColor=none;top=0;left=0;bottom=0;right=0;align=left;spacingLeft=6;overflow=hidden;whiteSpace=wrap;html=1;" vertex="1" parent="bBnNVzQg2bSL60ogmq5s-119">
          <mxGeometry x="30" width="254.2115149864785" height="30" as="geometry">
            <mxRectangle width="254.2115149864785" height="30" as="alternateBounds" />
          </mxGeometry>
        </mxCell>
        <mxCell id="bBnNVzQg2bSL60ogmq5s-122" value="" style="shape=tableRow;horizontal=0;startSize=0;swimlaneHead=0;swimlaneBody=0;fillColor=none;collapsible=0;dropTarget=0;points=[[0,0.5],[1,0.5]];portConstraint=eastwest;top=0;left=0;right=0;bottom=0;" vertex="1" parent="bBnNVzQg2bSL60ogmq5s-112">
          <mxGeometry y="120" width="284.2115149864785" height="30" as="geometry" />
        </mxCell>
        <mxCell id="bBnNVzQg2bSL60ogmq5s-123" value="" style="shape=partialRectangle;connectable=0;fillColor=none;top=0;left=0;bottom=0;right=0;editable=1;overflow=hidden;whiteSpace=wrap;html=1;" vertex="1" parent="bBnNVzQg2bSL60ogmq5s-122">
          <mxGeometry width="30" height="30" as="geometry">
            <mxRectangle width="30" height="30" as="alternateBounds" />
          </mxGeometry>
        </mxCell>
        <mxCell id="bBnNVzQg2bSL60ogmq5s-124" value="Row 3" style="shape=partialRectangle;connectable=0;fillColor=none;top=0;left=0;bottom=0;right=0;align=left;spacingLeft=6;overflow=hidden;whiteSpace=wrap;html=1;" vertex="1" parent="bBnNVzQg2bSL60ogmq5s-122">
          <mxGeometry x="30" width="254.2115149864785" height="30" as="geometry">
            <mxRectangle width="254.2115149864785" height="30" as="alternateBounds" />
          </mxGeometry>
        </mxCell>
      </root>
    </mxGraphModel>
  </diagram>
</mxfile>
